<?xml version="1.0" encoding="utf-8"?>
<!-- Generator: Adobe Illustrator 25.4.1, SVG Export Plug-In . SVG Version: 6.00 Build 0)  -->
<svg version="1.1" id="Layer_1" xmlns="http://www.w3.org/2000/svg" xmlns:xlink="http://www.w3.org/1999/xlink" x="0px" y="0px"
	 viewBox="0 0 612 388" style="enable-background:new 0 0 612 388;" xml:space="preserve">
<style type="text/css">
	.st0{fill:#A58D6C;}
	.st1{fill:#1D3633;}
	.st2{fill:#383938;}
</style>
<g>
	<g>
		<path class="st0" d="M209.7,226.3c-1.8-0.1-3.7-0.1-5.9-0.1c-1.8,0-3.7,0.1-5.5,0.1V226c2.5-0.4,3-0.6,3.2-5.8v-34
			c0-2.3-0.3-3.9-0.8-4.4c-0.4-0.6-1.5-1.1-3-1.3v-0.3c1.7,0.1,4.4,0.1,8.1,0.1c9.8,0,15.7-0.1,17.6-0.1c0,0.2,0.1,1.9,0.1,2.7
			c0,2.4-0.1,4.1-0.4,5.2h-0.3c0-2.7-0.6-4.4-2-4.9c-1.3-0.6-4.4-0.9-9.3-0.9c-2.6,0-4.4,0.1-5.3,0.4v18.6c5.8,0,9.2-0.2,10.4-0.6
			c1.2-0.4,2-1.4,2.3-2.9c0.1-0.5,0.3-1.2,0.3-2.1h0.3c-0.1,2.6-0.1,4.8-0.1,6.6c0,1.1,0.1,3.1,0.1,6h-0.3c-0.1-2.5-0.9-3.7-2.4-4.4
			c-0.4-0.2-1.1-0.3-2.3-0.4c-1.1-0.1-2.3-0.2-3.4-0.2c-1.1-0.1-2.7-0.1-4.9-0.1v17.2c0,2.3,0.3,3.9,0.7,4.5
			c0.5,0.6,1.5,1.1,2.8,1.3V226.3z"/>
		<path class="st0" d="M249.1,226.3c-1.8-0.1-3.6-0.1-5.5-0.1c-1.8,0-3.7,0.1-5.5,0.1V226c2.5-0.4,3-0.6,3.2-5.8v-34
			c-0.2-5.1-0.6-5.4-3.2-5.8v-0.3c1.8,0.1,3.7,0.1,5.5,0.1c1.9,0,3.7-0.1,5.5-0.1v0.3c-2.5,0.4-3,0.6-3.2,5.8v34
			c0.2,5.1,0.6,5.4,3.2,5.8V226.3z"/>
		<path class="st0" d="M307.3,227.6H307l-36-40v5.7c0,15.8,0.2,25,0.6,27.7c0.3,2.3,1,3.7,2,4.3c0.3,0.2,0.9,0.4,1.8,0.7v0.3
			c-1.8-0.1-3.7-0.1-5.4-0.1c-1.6,0-3.2,0.1-5,0.1V226c1.3-0.5,2.2-1.1,2.6-1.6c0.8-1.2,1.3-5,1.4-11.3c0.1-3.2,0.1-9.8,0.1-19.8
			v-14h0.4l35.8,39.8v-5.6c0-16-0.2-25.4-0.6-28.2c-0.3-2.2-1-3.5-2.1-4.1c-0.3-0.2-0.8-0.4-1.5-0.6c-0.1-0.1-0.1-0.1-0.2-0.1v-0.3
			c3.7,0.2,7.1,0.2,10.6,0v0.3c-1.4,0.4-2.3,1-2.7,1.5c-0.8,1.2-1.3,4.8-1.5,10.8c-0.1,3.4-0.1,10.1-0.1,20.2V227.6z"/>
		<path class="st0" d="M366.9,216c-0.3,1.8-0.4,4.1-0.4,6.8c-5.4,2.7-10.7,4.1-15.8,4.1c-7.9,0-14.4-2.8-18.5-7.2
			c-4.1-4.5-6.3-10.1-6.3-16.1c0-5.9,2.2-11.7,6-16.1c3.9-4.6,10.4-7.5,18.1-7.5c2.5,0,5.7,0.4,7.9,0.8c1.3,0.3,3.8,0.9,4.6,1.1
			c0.4,0.1,1.1,0.3,2.2,0.6l1.9,0.5c-0.1,1.6-0.2,3.7-0.2,6c0,0.8,0.1,2.2,0.1,2.4h-0.3c-0.3-3.2-1.9-5.8-4.8-7.5
			c-2.9-1.8-6.6-2.7-11-2.7c-5.1,0-9.5,1.8-13,5.3c-3.5,3.5-5.6,9.6-5.6,17.2c0,7.3,2.6,13.2,6.5,16.6c4,3.3,8.7,5,13.6,5
			c3.4,0,6.5-0.8,9.3-2.3c2.8-1.6,4.7-3.9,5.6-7H366.9z"/>
		<path class="st0" d="M416.2,226.3c-3.5-0.2-7.4-0.2-11.1,0V226c1.8-0.1,2.8-0.9,2.8-2.2c0-0.5-0.3-1.6-0.8-3.3l-3.7-11.9h-7.3
			c-3,0-5.3,0-6.7,0.1l-3.8,10.3c-0.7,2-1.1,3.4-1.1,4.3c0,1.6,0.9,2.6,2.9,2.8v0.3c-1.8-0.1-3.8-0.1-5.9-0.1
			c-1.1,0-2.5,0.1-4.3,0.1V226c1.7-0.4,2.9-1.1,3.7-2c0.8-1,1.9-3.2,3.2-6.7l14.3-38.1h0.6l13.3,42c0.7,2.1,1.2,3.4,1.5,3.8
			c0.3,0.4,1.1,0.8,2.3,1V226.3z M402.8,206.7l-5.8-18.7l-6.9,18.7c1.3,0.1,3.4,0.1,6,0.1H402.8z"/>
		<path class="st0" d="M28,292.6c-0.1,0.8-0.1,1.3-0.1,1.6c0,2.5,1,4.4,2.9,5.8c2,1.5,4.3,2.2,7,2.2c4.7,0,8.6-3,8.6-8.5
			c0-12.6-19-12.4-19-26.2c0-3.4,1.1-6.1,3.3-8.2c2.2-2.1,5-3.2,8.4-3.2c1.3,0,2.8,0.2,4.6,0.5c1.8,0.3,3.1,0.5,3.8,0.5
			c0.4,0,0.8,0,1.1-0.1c-0.1,1.3-0.2,2.7-0.2,4.2c0,1.7,0,2.8,0.1,3.5h-0.4c-0.9-4.9-3.9-7.3-8.9-7.3c-4.4,0-7.7,2.4-7.7,7.2
			c0,1.8,0.4,3.5,1.4,5.1c1.8,3.1,4.7,4.7,8,7.1c1.6,1.2,3.2,2.3,4.6,3.5c2.8,2.3,4.9,6,4.9,10.6c0,3.9-1.3,7-3.7,9.4
			c-2.5,2.3-5.6,3.5-9.4,3.5c-1.5,0-3.2-0.2-5-0.6c-1.8-0.4-3.2-0.6-4.1-0.6c-0.4,0-0.7,0-1,0.1c0.1-0.2,0.1-0.8,0.1-1.6
			c0-0.9-0.3-3.3-0.3-4.4c0-1.5,0.3-2.9,0.8-4H28z"/>
		<path class="st0" d="M99.5,303.2c-3.5-0.2-7.4-0.2-11.1,0v-0.3c1.8-0.1,2.8-0.9,2.8-2.2c0-0.5-0.3-1.6-0.8-3.3l-3.7-11.9h-7.3
			c-3,0-5.3,0-6.7,0.1l-3.8,10.3c-0.7,2-1.1,3.4-1.1,4.3c0,1.6,0.9,2.6,2.9,2.8v0.3c-1.8-0.1-3.8-0.1-5.9-0.1
			c-1.1,0-2.5,0.1-4.3,0.1v-0.3c1.7-0.4,2.9-1.1,3.7-2c0.8-1,1.9-3.2,3.2-6.7l14.3-38.1h0.6l13.3,42c0.7,2.1,1.2,3.4,1.5,3.8
			c0.3,0.4,1.1,0.8,2.3,1V303.2z M86.1,283.6l-5.8-18.7l-6.9,18.7c1.3,0.1,3.4,0.1,6,0.1H86.1z"/>
		<path class="st0" d="M154.7,304.5h-0.3l-36-40v5.7c0,15.8,0.2,25,0.6,27.7c0.3,2.3,1,3.7,2,4.3c0.3,0.2,0.9,0.4,1.8,0.7v0.3
			c-1.8-0.1-3.7-0.1-5.4-0.1c-1.6,0-3.2,0.1-5,0.1v-0.3c1.3-0.5,2.2-1.1,2.6-1.6c0.8-1.2,1.3-5,1.4-11.3c0.1-3.2,0.1-9.8,0.1-19.8
			v-14h0.4l35.8,39.8v-5.6c0-16-0.2-25.4-0.6-28.2c-0.3-2.2-1-3.5-2.1-4.1c-0.3-0.2-0.8-0.4-1.5-0.6c-0.1-0.1-0.1-0.1-0.2-0.1V257
			c3.7,0.2,7.1,0.2,10.6,0v0.3c-1.4,0.4-2.3,1-2.7,1.5c-0.8,1.2-1.3,4.8-1.5,10.8c-0.1,3.4-0.1,10.1-0.1,20.2V304.5z"/>
		<path class="st0" d="M240.9,292.9c-0.3,1.8-0.4,4.1-0.4,6.8c-5.4,2.7-10.7,4.1-15.8,4.1c-7.9,0-14.4-2.8-18.5-7.2
			c-4.1-4.5-6.3-10.1-6.3-16.1c0-5.9,2.2-11.7,6-16.1c3.9-4.6,10.4-7.5,18.1-7.5c2.5,0,5.7,0.4,7.9,0.8c1.3,0.3,3.8,0.9,4.6,1.1
			c0.4,0.1,1.1,0.3,2.2,0.6l1.9,0.5c-0.1,1.6-0.2,3.7-0.2,6c0,0.8,0.1,2.2,0.1,2.4H240c-0.3-3.2-1.9-5.8-4.8-7.5
			c-2.9-1.8-6.6-2.7-11-2.7c-5.1,0-9.5,1.8-13,5.3c-3.5,3.5-5.6,9.6-5.6,17.2c0,7.3,2.6,13.2,6.5,16.6c4,3.3,8.7,5,13.6,5
			c3.4,0,6.5-0.8,9.3-2.3c2.8-1.6,4.7-3.9,5.6-7H240.9z"/>
		<path class="st0" d="M290.1,303.2c-3.5-0.2-7.4-0.2-11.1,0v-0.3c1.8-0.1,2.8-0.9,2.8-2.2c0-0.5-0.3-1.6-0.8-3.3l-3.7-11.9H270
			c-3,0-5.3,0-6.7,0.1l-3.8,10.3c-0.7,2-1.1,3.4-1.1,4.3c0,1.6,0.9,2.6,2.9,2.8v0.3c-1.8-0.1-3.8-0.1-5.9-0.1
			c-1.1,0-2.5,0.1-4.3,0.1v-0.3c1.7-0.4,2.9-1.1,3.7-2c0.8-1,1.9-3.2,3.2-6.7l14.3-38.1h0.6l13.3,42c0.7,2.1,1.2,3.4,1.5,3.8
			c0.3,0.4,1.1,0.8,2.3,1V303.2z M276.7,283.6l-5.8-18.7l-6.9,18.7c1.3,0.1,3.4,0.1,6,0.1H276.7z"/>
		<path class="st0" d="M324.3,303.2c-1.8-0.1-3.6-0.1-5.5-0.1c-1.8,0-3.7,0.1-5.5,0.1v-0.3c1.3-0.3,2.2-0.7,2.5-1.3
			c0.4-0.6,0.6-2.2,0.6-4.5v-9.5l-12.7-25.5c-1.7-3.4-2.3-4.2-4.6-4.8V257c1.8,0.1,3.9,0.1,6.3,0.1c1.9,0,3.8-0.1,5.6-0.1v0.3
			c-1.9,0.3-2.8,1-2.8,2c0,0.8,0.4,1.9,1.2,3.5l10.6,21.6l7.9-15.3c0.2-0.4,0.5-1.1,1-1.8c1.8-3.6,2.8-5.9,3-6.8
			c0.1-0.3,0.1-0.6,0.1-0.9c0-1.2-0.9-2-2.6-2.3V257c1.8,0.1,3.4,0.1,4.6,0.1c1.5,0,3-0.1,4.8-0.1v0.3c-1.3,0.3-2.2,0.8-2.7,1.5
			c-0.6,0.7-1.8,3-3.8,6.8l-2.3,4.4l-8.7,16.7v10.4c0,2.3,0.2,3.9,0.6,4.5c0.4,0.6,1.3,1,2.6,1.3V303.2z"/>
		<path class="st0" d="M376.3,294.9c-0.1,3.9-0.4,6.8-0.4,8.4c-3.9-0.1-8.3-0.2-13-0.2c-6.7,0-11,0.1-12.7,0.1v-0.3
			c3-0.5,3.6-1.5,3.6-5.8v-34c0-2.3-0.3-3.9-0.8-4.4c-0.4-0.6-1.5-1.1-3-1.3V257c1.7,0.1,4.4,0.1,8.1,0.1c9.8,0,15.7-0.1,17.6-0.1
			c0,0.2,0.1,1.9,0.1,2.7c0,2.4-0.1,4.1-0.4,5.2H375c0-2.7-0.6-4.4-2-4.9c-1.3-0.6-4.4-0.9-9.3-0.9c-2.6,0-4.4,0.1-5.3,0.4v18.9h5
			c2.1-0.1,4.9-0.4,5.6-0.6c1.5-0.8,2.3-1.8,2.6-4.2h0.3c-0.1,2.6-0.1,4.6-0.1,5.9c0,1.5,0.1,3.6,0.1,6.5h-0.3
			c-0.3-2.8-1.1-4-2.5-4.8c-0.4-0.2-1.1-0.4-2.3-0.5s-2.3-0.2-3.4-0.2c-1.1-0.1-2.7-0.1-5-0.1v20.6c0.7,0.3,2.5,0.4,5.4,0.4h4.3
			c1.7-0.1,4.5-0.3,5.2-0.8c1.3-0.8,2.5-2.4,2.7-5.5H376.3z"/>
		<path class="st0" d="M411.7,303.2c-1.8-0.1-3.6-0.1-5.5-0.1c-1.8,0-3.7,0.1-5.5,0.1v-0.3c2.5-0.4,3-0.6,3.2-5.8v-37.6
			c-5.5,0-9.1,0.2-10.9,0.6c-1.8,0.4-3.1,1.5-4,3.4h-0.3c0.1-0.7,0.4-1.8,0.9-3.4c0.5-1.6,0.9-3.2,1.2-4.6h0.3
			c0.1,0.8,0.6,1.4,1.6,1.6c1.2,0.3,5.3,0.4,12.2,0.4c7.5,0,12.3-0.1,14.2-0.2c2-0.2,3.4-0.6,4.3-1.4h0.4c-0.2,0.5-0.6,1.6-1.1,3.3
			c-0.4,1.6-0.8,2.8-0.9,3.5h-0.4c0.1-0.3,0.1-0.6,0.1-0.9c0-1-0.4-1.6-2.4-1.9c-2-0.3-4.8-0.4-10.6-0.4v37.6
			c0.2,5.1,0.6,5.4,3.2,5.8V303.2z"/>
		<path class="st0" d="M465.6,303.2c-3.5-0.2-7.4-0.2-11.1,0v-0.3c1.8-0.1,2.8-0.9,2.8-2.2c0-0.5-0.3-1.6-0.8-3.3l-3.7-11.9h-7.3
			c-3,0-5.3,0-6.7,0.1l-3.8,10.3c-0.7,2-1.1,3.4-1.1,4.3c0,1.6,0.9,2.6,2.9,2.8v0.3c-1.8-0.1-3.8-0.1-5.9-0.1
			c-1.1,0-2.5,0.1-4.3,0.1v-0.3c1.7-0.4,2.9-1.1,3.7-2c0.8-1,1.9-3.2,3.2-6.7l14.3-38.1h0.6l13.3,42c0.7,2.1,1.2,3.4,1.5,3.8
			c0.3,0.4,1.1,0.8,2.3,1V303.2z M452.1,283.6l-5.8-18.7l-6.9,18.7c1.3,0.1,3.4,0.1,6,0.1H452.1z"/>
		<path class="st0" d="M520.8,304.5h-0.3l-36-40v5.7c0,15.8,0.2,25,0.6,27.7c0.3,2.3,1,3.7,2,4.3c0.3,0.2,0.9,0.4,1.8,0.7v0.3
			c-1.8-0.1-3.7-0.1-5.4-0.1c-1.6,0-3.2,0.1-5,0.1v-0.3c1.3-0.5,2.2-1.1,2.6-1.6c0.8-1.2,1.3-5,1.4-11.3c0.1-3.2,0.1-9.8,0.1-19.8
			v-14h0.4l35.8,39.8v-5.6c0-16-0.2-25.4-0.6-28.2c-0.3-2.2-1-3.5-2.1-4.1c-0.3-0.2-0.8-0.4-1.5-0.6c-0.1-0.1-0.1-0.1-0.2-0.1V257
			c3.7,0.2,7.1,0.2,10.6,0v0.3c-1.4,0.4-2.3,1-2.7,1.5c-0.8,1.2-1.3,4.8-1.5,10.8c-0.1,3.4-0.1,10.1-0.1,20.2V304.5z"/>
		<path class="st0" d="M545.7,296.7c-4.2-4.6-6.3-10.1-6.3-16.2c0-4.1,0.9-7.9,2.7-11.5c1.8-3.6,4.5-6.5,8.1-8.9
			c3.6-2.3,7.7-3.5,12.3-3.5c6.3,0,11.6,2.3,16,6.8c4.4,4.5,6.6,10.1,6.6,16.8c0,6.5-2.2,12-6.6,16.6c-4.4,4.5-9.9,6.8-16.4,6.8
			C555.4,303.7,549.9,301.4,545.7,296.7z M574.5,296.7c3.2-3.7,4.8-9,4.8-16c0-7.5-1.7-13.1-5.1-16.9c-3.4-3.8-7.4-5.7-12.2-5.7
			c-4.4,0-8.3,1.7-11.5,5.2c-3.2,3.4-5.3,9.4-5.3,17c0,7.3,1.6,12.7,4.7,16.4c3.1,3.7,7.2,5.5,12.1,5.5
			C567.1,302.3,571.3,300.4,574.5,296.7z"/>
	</g>
	<g>
		<path class="st1" d="M95.5,366.2h-4.7c-0.4,0-0.7,0.2-0.7,0.7v2.2c0,1.8,0.1,3.2,0.3,4.3h-2.5c0.2-1.1,0.3-2.5,0.3-4.3v-9.5
			c0-1.9-0.1-3.3-0.3-4.3h8c3.4,0,5.2,2,5.2,5.5c0,2.7-0.8,4.5-3.4,5.3l1.7,3.1c1.1,1.9,2,3.4,2.7,4.3h-2.8
			c-0.5-1.2-1.2-2.5-2.1-4.1L95.5,366.2z M90.8,356.9c-0.4,0-0.7,0.2-0.7,0.7v6.9h5.8c2,0,3.1-1.3,3.1-3.8c0-2.5-1.1-3.8-3.3-3.8
			H90.8z"/>
		<path class="st1" d="M131,373.4c0.2-1.1,0.3-2.5,0.3-4.3v-9.5c0-1.8-0.1-3.2-0.3-4.3h12.3v2c-1.1-0.2-2.5-0.3-4.3-0.3h-5
			c-0.4,0-0.7,0.2-0.7,0.7v4.8h4.7c1.8,0,3.2-0.1,4.3-0.3v2.2c-1.1-0.2-2.5-0.3-4.3-0.3h-4.1c-0.4,0-0.7,0.2-0.7,0.7v6.9h5.7
			c1.8,0,3.2-0.1,4.3-0.3v2H131z"/>
		<path class="st1" d="M173.7,368.1c0,2.8,1.6,3.8,4.8,3.8c1.2,0,2-0.1,2.9-0.4c1.3-0.4,2.3-1.3,2.3-3.2c0-2.7-1.8-3.7-4.9-3.7
			c-1.9,0-3.2-0.2-4.6-0.9c-1.3-0.7-2.1-2.1-2.1-4.1c0-3.2,2.2-4.8,6.7-4.8c1.7,0,2.9,0.2,4.1,0.8c1.2,0.6,2.1,1.7,2.5,3.3l-2.3,0.2
			c-0.4-1.9-1.8-2.6-4.2-2.6c-1.2,0-1.9,0-3,0.4c-1.1,0.4-1.7,1.2-1.7,2.5c0,1.3,0.5,2.2,1.4,2.6c0.9,0.4,1.8,0.5,3.2,0.5
			c3.5,0,6.9,1.2,6.9,5.6c0,2.1-0.8,3.6-2.2,4.3c-1.4,0.7-3,1-5,1c-4.7,0-7.1-1.8-7.1-5.3L173.7,368.1z"/>
		<path class="st1" d="M218,373.4c0.2-1.1,0.3-2.5,0.3-4.3v-12.1h-1.4c-1.9,0-3.3,0.1-4.3,0.3v-2H226v2c-1.1-0.2-2.5-0.3-4.3-0.3
			h-0.7c-0.4,0-0.7,0.2-0.7,0.7V369c0,1.8,0.1,3.2,0.3,4.3H218z"/>
		<path class="st1" d="M250.3,373.4c0.6-1.2,1.1-2.6,1.7-4.3l4.6-13.8h3.8l4.6,13.9c0.6,1.7,1.2,3.2,1.7,4.3H264
			c-0.2-1.1-0.6-2.5-1.2-4.3l-0.3-0.8h-7.9c-0.5,0-0.8,0.2-0.9,0.7c-0.6,1.8-1,3.2-1.2,4.3H250.3z M257.8,356.9l-3.2,9.7h6.8
			c0.4,0,0.6-0.2,0.5-0.7l-3-9H257.8z"/>
		<path class="st1" d="M310.4,355.2c-0.2,1.1-0.3,2.5-0.3,4.3v6.3c0,5.2-2.1,7.7-7.3,7.7c-5.1,0-7.3-2.3-7.3-7.7v-6.3
			c0-1.8-0.1-3.2-0.3-4.3h2.5c-0.2,1-0.3,2.5-0.3,4.3v6.4c0,2,0.4,3.5,1.1,4.5c0.8,1,2.1,1.4,4.2,1.4c1.9,0,3.3-0.5,4.1-1.4
			c0.8-0.9,1.2-2.4,1.2-4.5v-6.4c0-1.9-0.1-3.3-0.3-4.3H310.4z"/>
		<path class="st1" d="M349,366.2h-4.7c-0.4,0-0.7,0.2-0.7,0.7v2.2c0,1.8,0.1,3.2,0.3,4.3h-2.5c0.2-1.1,0.3-2.5,0.3-4.3v-9.5
			c0-1.9-0.1-3.3-0.3-4.3h8c3.4,0,5.2,2,5.2,5.5c0,2.7-0.8,4.5-3.4,5.3l1.7,3.1c1.1,1.9,2,3.4,2.7,4.3h-2.8
			c-0.5-1.2-1.2-2.5-2.1-4.1L349,366.2z M344.3,356.9c-0.4,0-0.7,0.2-0.7,0.7v6.9h5.8c2,0,3.1-1.3,3.1-3.8c0-2.5-1.1-3.8-3.3-3.8
			H344.3z"/>
		<path class="st1" d="M382.9,373.4c0.6-1.2,1.1-2.6,1.7-4.3l4.6-13.8h3.8l4.6,13.9c0.6,1.7,1.2,3.2,1.7,4.3h-2.7
			c-0.2-1.1-0.6-2.5-1.2-4.3l-0.3-0.8h-7.9c-0.5,0-0.8,0.2-0.9,0.7c-0.6,1.8-1,3.2-1.2,4.3H382.9z M390.4,356.9l-3.2,9.7h6.8
			c0.4,0,0.6-0.2,0.5-0.7l-3-9H390.4z"/>
		<path class="st1" d="M428,373.4c0.2-1,0.3-2.5,0.3-4.3v-9.5c0-1.9-0.1-3.4-0.3-4.3h4.4l8.3,16.4h1v-12.1c0-2-0.1-3.4-0.3-4.3h2.2
			c-0.2,1.1-0.3,2.5-0.3,4.3v9.5c0,1.9,0.1,3.3,0.3,4.3h-4.4l-8.3-16.4h-1V369c0,1.9,0.1,3.3,0.3,4.3H428z"/>
		<path class="st1" d="M477.2,373.4c0.2-1.1,0.3-2.5,0.3-4.3v-12.1h-1.4c-1.9,0-3.3,0.1-4.3,0.3v-2h13.4v2c-1.1-0.2-2.5-0.3-4.3-0.3
			h-0.7c-0.4,0-0.7,0.2-0.7,0.7V369c0,1.8,0.1,3.2,0.3,4.3H477.2z"/>
		<path class="st1" d="M513.4,373.4c0.2-1.1,0.3-2.5,0.3-4.3v-9.5c0-1.8-0.1-3.2-0.3-4.3h12.3v2c-1.1-0.2-2.5-0.3-4.3-0.3h-5
			c-0.4,0-0.7,0.2-0.7,0.7v4.8h4.7c1.8,0,3.2-0.1,4.3-0.3v2.2c-1.1-0.2-2.5-0.3-4.3-0.3h-4.1c-0.4,0-0.7,0.2-0.7,0.7v6.9h5.7
			c1.8,0,3.2-0.1,4.3-0.3v2H513.4z"/>
	</g>
	<path class="st1" d="M327.5,18.7c-5.4-6.3-13.3-10.3-22.3-10.3c-8.9,0-16.9,4-22.3,10.3h-69.2v26.5v2.2v29.8v2.2v29.8v2.2v16.9
		h18.6h2.3h16.8h2.3h12.2h2.3h16.8h2.3h12.2l0.2,0.2l0.2-0.2h23.7h2.3h16.6h2.3h12.4h2.3H376h2.3h12.4l0.2,0.2l0.2-0.2h6.5V112v-2.2
		V80.1v-2.2V48.1v-2.2V18.7H327.5z M396.1,20.3v24.9l-45.1,43l-28.3-27c7.2-5.3,11.9-13.9,11.9-23.5c0-6.5-2.1-12.5-5.7-17.4H396.1z
		 M396.1,77.1l-28.4,27l-15.6-14.9l44-41.9V77.1z M396.1,109.1l-11.6,11l-15.6-14.9l27.2-25.9V109.1z M305.4,76.7l-28.8,27.5
		l-15.6-14.9l28.5-27.1c4.6,3,10,4.7,15.9,4.7c5.9,0,11.4-1.8,16-4.8l28.5,27.1l-15.6,14.9L305.4,76.7z M333,105.2l-15.6,14.9
		l-12-11.4l-12.1,11.5l-15.6-14.9l27.7-26.4L333,105.2z M215.3,80.1l26.5,25.2l-15.6,14.9l-10.9-10.3V80.1z M215.3,77.9V48.1
		l43.3,41.2L243,104.2L215.3,77.9z M259.8,90.4l15.6,14.9l-15.6,14.9l-15.6-14.9L259.8,90.4z M305.9,45.3l-0.5-0.5l-16.2,15.4
		c-7-5-11.7-13.3-11.7-22.5c0-6.6,2.3-12.6,6.2-17.4h43c3.8,4.8,6.2,10.8,6.2,17.4c0,9.2-4.5,17.4-11.5,22.4L305.9,45.3z M320.1,61
		c-4.3,2.7-9.4,4.3-14.9,4.3c-5.4,0-10.4-1.6-14.7-4.2L305.4,47L320.1,61z M350.9,90.3l15.6,14.9l-15.6,14.9l-15.6-14.9L350.9,90.3z
		 M305.2,10c7.9,0,15.1,3.4,20.1,8.7h-40.3C290.2,13.3,297.3,10,305.2,10z M215.3,20.3h66.4c-3.6,4.9-5.7,10.9-5.7,17.4
		c0,9.7,4.8,18.3,12.1,23.7l-28.3,26.9l-44.4-42.3V20.3z M396.1,126.6h-4.8l0,0H389l0,0H380l0,0h-2.3l0,0h-19.9l0,0h-2.3l0,0h-9.1
		l0,0h-2.3l0,0h-19.9l0,0h-2.3l0,0h-21.8l0,0h-2.3l0,0h-8.9l0,0h-2.3l0,0h-20.1l0,0h-2.3l0,0h-8.9l0,0h-2.3l0,0H233l0,0h-2.3l0,0
		h-15.3V112l9.7,9.2h0h2.3h0l15.6-14.9l15.6,14.9h0h2.3h0l15.6-14.9l15.6,14.9h0h2.3h0l10.9-10.4l10.8,10.3l-0.1,0.1h0.1h2.2h0.1
		l-0.1-0.1l15.6-14.9l15.6,14.9l-0.1,0.1h0.1h2.2h0.1l-0.1-0.1l15.6-14.9l15.6,14.9l-0.1,0.1h0.1h2.2h0.1l-0.1-0.1l10.4-9.9V126.6z"
		/>
	<polygon class="st2" points="226.2,122.4 227.4,121.3 227.4,121.3 227.4,121.3 225.1,121.3 225.1,121.3 225.1,121.3 	"/>
	<polygon class="st2" points="259.8,122.4 260.9,121.3 260.9,121.3 260.9,121.3 258.6,121.3 258.6,121.3 258.6,121.3 	"/>
	<polygon class="st2" points="293.3,122.4 294.5,121.3 294.5,121.3 294.5,121.3 292.2,121.3 292.2,121.3 292.2,121.3 	"/>
	<polygon class="st2" points="318.5,121.3 316.3,121.3 317.4,122.3 	"/>
	<polygon class="st2" points="352,121.3 349.9,121.3 350.9,122.3 	"/>
	<polygon class="st2" points="385.6,121.3 383.4,121.3 384.5,122.3 	"/>
</g>
</svg>
