<?xml version="1.0" encoding="utf-8"?>
<!-- Generator: Adobe Illustrator 25.4.1, SVG Export Plug-In . SVG Version: 6.00 Build 0)  -->
<svg version="1.1" id="Layer_1" xmlns="http://www.w3.org/2000/svg" xmlns:xlink="http://www.w3.org/1999/xlink" x="0px" y="0px"
	 viewBox="0 0 612 388" style="enable-background:new 0 0 612 388;" xml:space="preserve">
<style type="text/css">
	.st0{fill:#A58D6C;}
	.st1{fill:#F4EFE9;}
	.st2{fill:#1C3532;}
	.st3{fill:#383838;}
</style>
<g>
	<path class="st0" d="M209.7,226.3c-1.8-0.1-3.7-0.1-5.9-0.1c-1.8,0-3.7,0.1-5.5,0.1V226c2.5-0.4,3-0.6,3.2-5.8v-34
		c0-2.3-0.3-3.9-0.8-4.4c-0.4-0.6-1.5-1.1-3-1.3v-0.3c1.7,0.1,4.4,0.1,8.1,0.1c9.8,0,15.7-0.1,17.6-0.1c0,0.2,0.1,1.9,0.1,2.7
		c0,2.4-0.1,4.1-0.4,5.2h-0.3c0-2.7-0.6-4.4-2-4.9c-1.3-0.6-4.4-0.9-9.3-0.9c-2.6,0-4.4,0.1-5.3,0.4v18.6c5.8,0,9.2-0.2,10.4-0.6
		c1.2-0.4,2-1.4,2.3-2.9c0.1-0.5,0.3-1.2,0.3-2.1h0.3c-0.1,2.6-0.1,4.8-0.1,6.6c0,1.1,0.1,3.1,0.1,6h-0.3c-0.1-2.5-0.9-3.7-2.4-4.4
		c-0.4-0.2-1.1-0.3-2.3-0.4c-1.1-0.1-2.3-0.2-3.4-0.2c-1.1-0.1-2.7-0.1-4.9-0.1v17.2c0,2.3,0.3,3.9,0.7,4.5
		C207.4,225.5,208.4,226,209.7,226.3L209.7,226.3L209.7,226.3z"/>
	<path class="st0" d="M249.1,226.3c-1.8-0.1-3.6-0.1-5.5-0.1c-1.8,0-3.7,0.1-5.5,0.1V226c2.5-0.4,3-0.6,3.2-5.8v-34
		c-0.2-5.1-0.6-5.4-3.2-5.8v-0.3c1.8,0.1,3.7,0.1,5.5,0.1c1.9,0,3.7-0.1,5.5-0.1v0.3c-2.5,0.4-3,0.6-3.2,5.8v34
		c0.2,5.1,0.6,5.4,3.2,5.8V226.3z"/>
	<path class="st0" d="M307.3,227.6H307l-36-40v5.7c0,15.8,0.2,25,0.6,27.7c0.3,2.3,1,3.7,2,4.3c0.3,0.2,0.9,0.4,1.8,0.7v0.3
		c-1.8-0.1-3.7-0.1-5.4-0.1c-1.6,0-3.2,0.1-5,0.1V226c1.3-0.5,2.2-1.1,2.6-1.6c0.8-1.2,1.3-5,1.4-11.3c0.1-3.2,0.1-9.8,0.1-19.8v-14
		h0.4l35.8,39.8v-5.6c0-16-0.2-25.4-0.6-28.2c-0.3-2.2-1-3.5-2.1-4.1c-0.3-0.2-0.8-0.4-1.5-0.6c-0.1-0.1-0.1-0.1-0.2-0.1v-0.3
		c3.7,0.2,7.1,0.2,10.6,0v0.3c-1.4,0.4-2.3,1-2.7,1.5c-0.8,1.2-1.3,4.8-1.5,10.8c-0.1,3.4-0.1,10.1-0.1,20.2v14.6H307.3z"/>
	<path class="st0" d="M366.9,216c-0.3,1.8-0.4,4.1-0.4,6.8c-5.4,2.7-10.7,4.1-15.8,4.1c-7.9,0-14.4-2.8-18.5-7.2
		c-4.1-4.5-6.3-10.1-6.3-16.1c0-5.9,2.2-11.7,6-16.1c3.9-4.6,10.4-7.5,18.1-7.5c2.5,0,5.7,0.4,7.9,0.8c1.3,0.3,3.8,0.9,4.6,1.1
		c0.4,0.1,1.1,0.3,2.2,0.6l1.9,0.5c-0.1,1.6-0.2,3.7-0.2,6c0,0.8,0.1,2.2,0.1,2.4h-0.3c-0.3-3.2-1.9-5.8-4.8-7.5
		c-2.9-1.8-6.6-2.7-11-2.7c-5.1,0-9.5,1.8-13,5.3s-5.6,9.6-5.6,17.2c0,7.3,2.6,13.2,6.5,16.6c4,3.3,8.7,5,13.6,5
		c3.4,0,6.5-0.8,9.3-2.3C364,221.4,365.9,219.1,366.9,216L366.9,216L366.9,216z"/>
	<path class="st0" d="M416.2,226.3c-3.5-0.2-7.4-0.2-11.1,0V226c1.8-0.1,2.8-0.9,2.8-2.2c0-0.5-0.3-1.6-0.8-3.3l-3.7-11.9h-7.3
		c-3,0-5.3,0-6.7,0.1l-3.8,10.3c-0.7,2-1.1,3.4-1.1,4.3c0,1.6,0.9,2.6,2.9,2.8v0.3c-1.8-0.1-3.8-0.1-5.9-0.1c-1.1,0-2.5,0.1-4.3,0.1
		V226c1.7-0.4,2.9-1.1,3.7-2c0.8-1,1.9-3.2,3.2-6.7l14.3-38.1h0.6l13.3,42c0.7,2.1,1.2,3.4,1.5,3.8c0.3,0.4,1.1,0.8,2.3,1v0.3H416.2
		z M402.8,206.7L397,188l-6.9,18.7c1.3,0.1,3.4,0.1,6,0.1h6.7V206.7z"/>
	<path class="st0" d="M28,292.6c-0.1,0.8-0.1,1.3-0.1,1.6c0,2.5,1,4.4,2.9,5.8c2,1.5,4.3,2.2,7,2.2c4.7,0,8.6-3,8.6-8.5
		c0-12.6-19-12.4-19-26.2c0-3.4,1.1-6.1,3.3-8.2s5-3.2,8.4-3.2c1.3,0,2.8,0.2,4.6,0.5s3.1,0.5,3.8,0.5c0.4,0,0.8,0,1.1-0.1
		c-0.1,1.3-0.2,2.7-0.2,4.2c0,1.7,0,2.8,0.1,3.5h-0.4c-0.9-4.9-3.9-7.3-8.9-7.3c-4.4,0-7.7,2.4-7.7,7.2c0,1.8,0.4,3.5,1.4,5.1
		c1.8,3.1,4.7,4.7,8,7.1c1.6,1.2,3.2,2.3,4.6,3.5c2.8,2.3,4.9,6,4.9,10.6c0,3.9-1.3,7-3.7,9.4c-2.5,2.3-5.6,3.5-9.4,3.5
		c-1.5,0-3.2-0.2-5-0.6s-3.2-0.6-4.1-0.6c-0.4,0-0.7,0-1,0.1c0.1-0.2,0.1-0.8,0.1-1.6c0-0.9-0.3-3.3-0.3-4.4c0-1.5,0.3-2.9,0.8-4H28
		V292.6z"/>
	<path class="st0" d="M99.5,303.2c-3.5-0.2-7.4-0.2-11.1,0v-0.3c1.8-0.1,2.8-0.9,2.8-2.2c0-0.5-0.3-1.6-0.8-3.3l-3.7-11.9h-7.3
		c-3,0-5.3,0-6.7,0.1l-3.8,10.3c-0.7,2-1.1,3.4-1.1,4.3c0,1.6,0.9,2.6,2.9,2.8v0.3c-1.8-0.1-3.8-0.1-5.9-0.1c-1.1,0-2.5,0.1-4.3,0.1
		V303c1.7-0.4,2.9-1.1,3.7-2c0.8-1,1.9-3.2,3.2-6.7l14.3-38.1h0.6l13.3,42c0.7,2.1,1.2,3.4,1.5,3.8s1.1,0.8,2.3,1L99.5,303.2
		L99.5,303.2z M86.1,283.6l-5.8-18.7l-6.9,18.7c1.3,0.1,3.4,0.1,6,0.1h6.7V283.6z"/>
	<path class="st0" d="M154.7,304.5h-0.3l-36-40v5.7c0,15.8,0.2,25,0.6,27.7c0.3,2.3,1,3.7,2,4.3c0.3,0.2,0.9,0.4,1.8,0.7v0.3
		c-1.8-0.1-3.7-0.1-5.4-0.1c-1.6,0-3.2,0.1-5,0.1v-0.3c1.3-0.5,2.2-1.1,2.6-1.6c0.8-1.2,1.3-5,1.4-11.3c0.1-3.2,0.1-9.8,0.1-19.8
		v-14h0.4l35.8,39.8v-5.6c0-16-0.2-25.4-0.6-28.2c-0.3-2.2-1-3.5-2.1-4.1c-0.3-0.2-0.8-0.4-1.5-0.6c-0.1-0.1-0.1-0.1-0.2-0.1V257
		c3.7,0.2,7.1,0.2,10.6,0v0.3c-1.4,0.4-2.3,1-2.7,1.5c-0.8,1.2-1.3,4.8-1.5,10.8c-0.1,3.4-0.1,10.1-0.1,20.2v14.7H154.7z"/>
	<path class="st0" d="M240.9,292.9c-0.3,1.8-0.4,4.1-0.4,6.8c-5.4,2.7-10.7,4.1-15.8,4.1c-7.9,0-14.4-2.8-18.5-7.2
		c-4.1-4.5-6.3-10.1-6.3-16.1c0-5.9,2.2-11.7,6-16.1c3.9-4.6,10.4-7.5,18.1-7.5c2.5,0,5.7,0.4,7.9,0.8c1.3,0.3,3.8,0.9,4.6,1.1
		c0.4,0.1,1.1,0.3,2.2,0.6l1.9,0.5c-0.1,1.6-0.2,3.7-0.2,6c0,0.8,0.1,2.2,0.1,2.4H240c-0.3-3.2-1.9-5.8-4.8-7.5
		c-2.9-1.8-6.6-2.7-11-2.7c-5.1,0-9.5,1.8-13,5.3s-5.6,9.6-5.6,17.2c0,7.3,2.6,13.2,6.5,16.6c4,3.3,8.7,5,13.6,5
		c3.4,0,6.5-0.8,9.3-2.3c2.8-1.6,4.7-3.9,5.6-7L240.9,292.9L240.9,292.9z"/>
	<path class="st0" d="M290.1,303.2c-3.5-0.2-7.4-0.2-11.1,0v-0.3c1.8-0.1,2.8-0.9,2.8-2.2c0-0.5-0.3-1.6-0.8-3.3l-3.7-11.9H270
		c-3,0-5.3,0-6.7,0.1l-3.8,10.3c-0.7,2-1.1,3.4-1.1,4.3c0,1.6,0.9,2.6,2.9,2.8v0.3c-1.8-0.1-3.8-0.1-5.9-0.1c-1.1,0-2.5,0.1-4.3,0.1
		V303c1.7-0.4,2.9-1.1,3.7-2c0.8-1,1.9-3.2,3.2-6.7l14.3-38.1h0.6l13.3,42c0.7,2.1,1.2,3.4,1.5,3.8s1.1,0.8,2.3,1v0.2H290.1z
		 M276.7,283.6l-5.8-18.7l-6.9,18.7c1.3,0.1,3.4,0.1,6,0.1h6.7V283.6z"/>
	<path class="st0" d="M324.3,303.2c-1.8-0.1-3.6-0.1-5.5-0.1c-1.8,0-3.7,0.1-5.5,0.1v-0.3c1.3-0.3,2.2-0.7,2.5-1.3
		c0.4-0.6,0.6-2.2,0.6-4.5v-9.5l-12.7-25.5c-1.7-3.4-2.3-4.2-4.6-4.8V257c1.8,0.1,3.9,0.1,6.3,0.1c1.9,0,3.8-0.1,5.6-0.1v0.3
		c-1.9,0.3-2.8,1-2.8,2c0,0.8,0.4,1.9,1.2,3.5l10.6,21.6l7.9-15.3c0.2-0.4,0.5-1.1,1-1.8c1.8-3.6,2.8-5.9,3-6.8
		c0.1-0.3,0.1-0.6,0.1-0.9c0-1.2-0.9-2-2.6-2.3V257c1.8,0.1,3.4,0.1,4.6,0.1c1.5,0,3-0.1,4.8-0.1v0.3c-1.3,0.3-2.2,0.8-2.7,1.5
		c-0.6,0.7-1.8,3-3.8,6.8L330,270l-8.7,16.7v10.4c0,2.3,0.2,3.9,0.6,4.5s1.3,1,2.6,1.3v0.3H324.3z"/>
	<path class="st0" d="M376.3,294.9c-0.1,3.9-0.4,6.8-0.4,8.4c-3.9-0.1-8.3-0.2-13-0.2c-6.7,0-11,0.1-12.7,0.1v-0.3
		c3-0.5,3.6-1.5,3.6-5.8v-34c0-2.3-0.3-3.9-0.8-4.4c-0.4-0.6-1.5-1.1-3-1.3V257c1.7,0.1,4.4,0.1,8.1,0.1c9.8,0,15.7-0.1,17.6-0.1
		c0,0.2,0.1,1.9,0.1,2.7c0,2.4-0.1,4.1-0.4,5.2H375c0-2.7-0.6-4.4-2-4.9c-1.3-0.6-4.4-0.9-9.3-0.9c-2.6,0-4.4,0.1-5.3,0.4v18.9h5
		c2.1-0.1,4.9-0.4,5.6-0.6c1.5-0.8,2.3-1.8,2.6-4.2h0.3c-0.1,2.6-0.1,4.6-0.1,5.9c0,1.5,0.1,3.6,0.1,6.5h-0.3
		c-0.3-2.8-1.1-4-2.5-4.8c-0.4-0.2-1.1-0.4-2.3-0.5s-2.3-0.2-3.4-0.2c-1.1-0.1-2.7-0.1-5-0.1V301c0.7,0.3,2.5,0.4,5.4,0.4h4.3
		c1.7-0.1,4.5-0.3,5.2-0.8c1.3-0.8,2.5-2.4,2.7-5.5h0.3V294.9z"/>
	<path class="st0" d="M411.7,303.2c-1.8-0.1-3.6-0.1-5.5-0.1c-1.8,0-3.7,0.1-5.5,0.1v-0.3c2.5-0.4,3-0.6,3.2-5.8v-37.6
		c-5.5,0-9.1,0.2-10.9,0.6s-3.1,1.5-4,3.4h-0.3c0.1-0.7,0.4-1.8,0.9-3.4s0.9-3.2,1.2-4.6h0.3c0.1,0.8,0.6,1.4,1.6,1.6
		c1.2,0.3,5.3,0.4,12.2,0.4c7.5,0,12.3-0.1,14.2-0.2c2-0.2,3.4-0.6,4.3-1.4h0.4c-0.2,0.5-0.6,1.6-1.1,3.3c-0.4,1.6-0.8,2.8-0.9,3.5
		h-0.4c0.1-0.3,0.1-0.6,0.1-0.9c0-1-0.4-1.6-2.4-1.9s-4.8-0.4-10.6-0.4v37.6c0.2,5.1,0.6,5.4,3.2,5.8L411.7,303.2L411.7,303.2z"/>
	<path class="st0" d="M465.6,303.2c-3.5-0.2-7.4-0.2-11.1,0v-0.3c1.8-0.1,2.8-0.9,2.8-2.2c0-0.5-0.3-1.6-0.8-3.3l-3.7-11.9h-7.3
		c-3,0-5.3,0-6.7,0.1l-3.8,10.3c-0.7,2-1.1,3.4-1.1,4.3c0,1.6,0.9,2.6,2.9,2.8v0.3c-1.8-0.1-3.8-0.1-5.9-0.1c-1.1,0-2.5,0.1-4.3,0.1
		V303c1.7-0.4,2.9-1.1,3.7-2c0.8-1,1.9-3.2,3.2-6.7l14.3-38.1h0.6l13.3,42c0.7,2.1,1.2,3.4,1.5,3.8s1.1,0.8,2.3,1v0.2H465.6z
		 M452.1,283.6l-5.8-18.7l-6.9,18.7c1.3,0.1,3.4,0.1,6,0.1h6.7V283.6z"/>
	<path class="st0" d="M520.8,304.5h-0.3l-36-40v5.7c0,15.8,0.2,25,0.6,27.7c0.3,2.3,1,3.7,2,4.3c0.3,0.2,0.9,0.4,1.8,0.7v0.3
		c-1.8-0.1-3.7-0.1-5.4-0.1c-1.6,0-3.2,0.1-5,0.1v-0.3c1.3-0.5,2.2-1.1,2.6-1.6c0.8-1.2,1.3-5,1.4-11.3c0.1-3.2,0.1-9.8,0.1-19.8
		v-14h0.4l35.8,39.8v-5.6c0-16-0.2-25.4-0.6-28.2c-0.3-2.2-1-3.5-2.1-4.1c-0.3-0.2-0.8-0.4-1.5-0.6c-0.1-0.1-0.1-0.1-0.2-0.1V257
		c3.7,0.2,7.1,0.2,10.6,0v0.3c-1.4,0.4-2.3,1-2.7,1.5c-0.8,1.2-1.3,4.8-1.5,10.8c-0.1,3.4-0.1,10.1-0.1,20.2L520.8,304.5
		L520.8,304.5z"/>
	<path class="st0" d="M545.7,296.7c-4.2-4.6-6.3-10.1-6.3-16.2c0-4.1,0.9-7.9,2.7-11.5s4.5-6.5,8.1-8.9c3.6-2.3,7.7-3.5,12.3-3.5
		c6.3,0,11.6,2.3,16,6.8s6.6,10.1,6.6,16.8c0,6.5-2.2,12-6.6,16.6c-4.4,4.5-9.9,6.8-16.4,6.8C555.4,303.7,549.9,301.4,545.7,296.7z
		 M574.5,296.7c3.2-3.7,4.8-9,4.8-16c0-7.5-1.7-13.1-5.1-16.9c-3.4-3.8-7.4-5.7-12.2-5.7c-4.4,0-8.3,1.7-11.5,5.2
		c-3.2,3.4-5.3,9.4-5.3,17c0,7.3,1.6,12.7,4.7,16.4c3.1,3.7,7.2,5.5,12.1,5.5C567.1,302.3,571.3,300.4,574.5,296.7z"/>
</g>
<g>
	<g>
		<path class="st1" d="M95.5,366.2h-4.7c-0.4,0-0.7,0.2-0.7,0.7v2.2c0,1.8,0.1,3.2,0.3,4.3h-2.5c0.2-1.1,0.3-2.5,0.3-4.3v-9.5
			c0-1.9-0.1-3.3-0.3-4.3h8c3.4,0,5.2,2,5.2,5.5c0,2.7-0.8,4.5-3.4,5.3l1.7,3.1c1.1,1.9,2,3.4,2.7,4.3h-2.8
			c-0.5-1.2-1.2-2.5-2.1-4.1L95.5,366.2z M90.8,356.9c-0.4,0-0.7,0.2-0.7,0.7v6.9h5.8c2,0,3.1-1.3,3.1-3.8s-1.1-3.8-3.3-3.8
			L90.8,356.9L90.8,356.9z"/>
		<path class="st1" d="M131,373.4c0.2-1.1,0.3-2.5,0.3-4.3v-9.5c0-1.8-0.1-3.2-0.3-4.3h12.3v2c-1.1-0.2-2.5-0.3-4.3-0.3h-5
			c-0.4,0-0.7,0.2-0.7,0.7v4.8h4.7c1.8,0,3.2-0.1,4.3-0.3v2.2c-1.1-0.2-2.5-0.3-4.3-0.3h-4.1c-0.4,0-0.7,0.2-0.7,0.7v6.9h5.7
			c1.8,0,3.2-0.1,4.3-0.3v2L131,373.4L131,373.4z"/>
		<path class="st1" d="M173.7,368.1c0,2.8,1.6,3.8,4.8,3.8c1.2,0,2-0.1,2.9-0.4c1.3-0.4,2.3-1.3,2.3-3.2c0-2.7-1.8-3.7-4.9-3.7
			c-1.9,0-3.2-0.2-4.6-0.9c-1.3-0.7-2.1-2.1-2.1-4.1c0-3.2,2.2-4.8,6.7-4.8c1.7,0,2.9,0.2,4.1,0.8c1.2,0.6,2.1,1.7,2.5,3.3l-2.3,0.2
			c-0.4-1.9-1.8-2.6-4.2-2.6c-1.2,0-1.9,0-3,0.4s-1.7,1.2-1.7,2.5s0.5,2.2,1.4,2.6s1.8,0.5,3.2,0.5c3.5,0,6.9,1.2,6.9,5.6
			c0,2.1-0.8,3.6-2.2,4.3c-1.4,0.7-3,1-5,1c-4.7,0-7.1-1.8-7.1-5.3L173.7,368.1z"/>
		<path class="st1" d="M218,373.4c0.2-1.1,0.3-2.5,0.3-4.3V357h-1.4c-1.9,0-3.3,0.1-4.3,0.3v-2H226v2c-1.1-0.2-2.5-0.3-4.3-0.3H221
			c-0.4,0-0.7,0.2-0.7,0.7V369c0,1.8,0.1,3.2,0.3,4.3H218V373.4z"/>
		<path class="st1" d="M250.3,373.4c0.6-1.2,1.1-2.6,1.7-4.3l4.6-13.8h3.8l4.6,13.9c0.6,1.7,1.2,3.2,1.7,4.3H264
			c-0.2-1.1-0.6-2.5-1.2-4.3l-0.3-0.8h-7.9c-0.5,0-0.8,0.2-0.9,0.7c-0.6,1.8-1,3.2-1.2,4.3L250.3,373.4L250.3,373.4z M257.8,356.9
			l-3.2,9.7h6.8c0.4,0,0.6-0.2,0.5-0.7l-3-9H257.8z"/>
		<path class="st1" d="M310.4,355.2c-0.2,1.1-0.3,2.5-0.3,4.3v6.3c0,5.2-2.1,7.7-7.3,7.7c-5.1,0-7.3-2.3-7.3-7.7v-6.3
			c0-1.8-0.1-3.2-0.3-4.3h2.5c-0.2,1-0.3,2.5-0.3,4.3v6.4c0,2,0.4,3.5,1.1,4.5c0.8,1,2.1,1.4,4.2,1.4c1.9,0,3.3-0.5,4.1-1.4
			c0.8-0.9,1.2-2.4,1.2-4.5v-6.4c0-1.9-0.1-3.3-0.3-4.3H310.4z"/>
		<path class="st1" d="M349,366.2h-4.7c-0.4,0-0.7,0.2-0.7,0.7v2.2c0,1.8,0.1,3.2,0.3,4.3h-2.5c0.2-1.1,0.3-2.5,0.3-4.3v-9.5
			c0-1.9-0.1-3.3-0.3-4.3h8c3.4,0,5.2,2,5.2,5.5c0,2.7-0.8,4.5-3.4,5.3l1.7,3.1c1.1,1.9,2,3.4,2.7,4.3h-2.8
			c-0.5-1.2-1.2-2.5-2.1-4.1L349,366.2z M344.3,356.9c-0.4,0-0.7,0.2-0.7,0.7v6.9h5.8c2,0,3.1-1.3,3.1-3.8s-1.1-3.8-3.3-3.8
			L344.3,356.9L344.3,356.9z"/>
		<path class="st1" d="M382.9,373.4c0.6-1.2,1.1-2.6,1.7-4.3l4.6-13.8h3.8l4.6,13.9c0.6,1.7,1.2,3.2,1.7,4.3h-2.7
			c-0.2-1.1-0.6-2.5-1.2-4.3l-0.3-0.8h-7.9c-0.5,0-0.8,0.2-0.9,0.7c-0.6,1.8-1,3.2-1.2,4.3L382.9,373.4L382.9,373.4z M390.4,356.9
			l-3.2,9.7h6.8c0.4,0,0.6-0.2,0.5-0.7l-3-9H390.4z"/>
		<path class="st1" d="M428,373.4c0.2-1,0.3-2.5,0.3-4.3v-9.5c0-1.9-0.1-3.4-0.3-4.3h4.4l8.3,16.4h1v-12.1c0-2-0.1-3.4-0.3-4.3h2.2
			c-0.2,1.1-0.3,2.5-0.3,4.3v9.5c0,1.9,0.1,3.3,0.3,4.3h-4.4l-8.3-16.4h-1v12c0,1.9,0.1,3.3,0.3,4.3H428V373.4z"/>
		<path class="st1" d="M477.2,373.4c0.2-1.1,0.3-2.5,0.3-4.3V357h-1.4c-1.9,0-3.3,0.1-4.3,0.3v-2h13.4v2c-1.1-0.2-2.5-0.3-4.3-0.3
			h-0.7c-0.4,0-0.7,0.2-0.7,0.7V369c0,1.8,0.1,3.2,0.3,4.3h-2.6V373.4z"/>
		<path class="st1" d="M513.4,373.4c0.2-1.1,0.3-2.5,0.3-4.3v-9.5c0-1.8-0.1-3.2-0.3-4.3h12.3v2c-1.1-0.2-2.5-0.3-4.3-0.3h-5
			c-0.4,0-0.7,0.2-0.7,0.7v4.8h4.7c1.8,0,3.2-0.1,4.3-0.3v2.2c-1.1-0.2-2.5-0.3-4.3-0.3h-4.1c-0.4,0-0.7,0.2-0.7,0.7v6.9h5.7
			c1.8,0,3.2-0.1,4.3-0.3v2L513.4,373.4L513.4,373.4z"/>
	</g>
</g>
<path class="st1" d="M327.5,18.7c-5.4-6.3-13.3-10.3-22.3-10.3c-8.9,0-16.9,4-22.3,10.3h-69.2v26.5v2.2v29.8v2.2v29.8v2.2v16.9h18.6
	h2.3h16.8h2.3h12.2h2.3H285h2.3h12.2l0.2,0.2l0.2-0.2h23.7h2.3h16.6h2.3h12.4h2.3H376h2.3h12.4l0.2,0.2l0.2-0.2h6.5V112v-2.2V80.1
	v-2.2V48.1v-2.2V18.7H327.5z M396.1,20.3v24.9l-45.1,43l-28.3-27c7.2-5.3,11.9-13.9,11.9-23.5c0-6.5-2.1-12.5-5.7-17.4
	C328.9,20.3,396.1,20.3,396.1,20.3z M396.1,77.1l-28.4,27l-15.6-14.9l44-41.9V77.1z M396.1,109.1l-11.6,11l-15.6-14.9l27.2-25.9
	V109.1z M305.4,76.7l-28.8,27.5L261,89.3l28.5-27.1c4.6,3,10,4.7,15.9,4.7s11.4-1.8,16-4.8l28.5,27.1l-15.6,14.9L305.4,76.7z
	 M333,105.2l-15.6,14.9l-12-11.4l-12.1,11.5l-15.6-14.9l27.7-26.4L333,105.2z M215.3,80.1l26.5,25.2l-15.6,14.9l-10.9-10.3V80.1z
	 M215.3,77.9V48.1l43.3,41.2L243,104.2L215.3,77.9z M259.8,90.4l15.6,14.9l-15.6,14.9l-15.6-14.9L259.8,90.4z M305.9,45.3l-0.5-0.5
	l-16.2,15.4c-7-5-11.7-13.3-11.7-22.5c0-6.6,2.3-12.6,6.2-17.4h43c3.8,4.8,6.2,10.8,6.2,17.4c0,9.2-4.5,17.4-11.5,22.4L305.9,45.3z
	 M320.1,61c-4.3,2.7-9.4,4.3-14.9,4.3c-5.4,0-10.4-1.6-14.7-4.2L305.4,47L320.1,61z M350.9,90.3l15.6,14.9l-15.6,14.9l-15.6-14.9
	L350.9,90.3z M305.2,10c7.9,0,15.1,3.4,20.1,8.7H285C290.2,13.3,297.3,10,305.2,10z M215.3,20.3h66.4c-3.6,4.9-5.7,10.9-5.7,17.4
	c0,9.7,4.8,18.3,12.1,23.7l-28.3,26.9L215.4,46V20.3H215.3z M396.1,126.6h-4.8l0,0H389l0,0h-9l0,0h-2.3l0,0h-19.9l0,0h-2.3l0,0h-9.1
	l0,0h-2.3l0,0h-19.9l0,0h-2.3l0,0h-21.8l0,0h-2.3l0,0h-8.9l0,0h-2.3l0,0h-20.1l0,0h-2.3l0,0h-8.9l0,0H253l0,0h-20l0,0h-2.3l0,0
	h-15.3V112l9.7,9.2l0,0h2.3l0,0l15.6-14.9l15.6,14.9l0,0h2.3l0,0l15.6-14.9l15.6,14.9l0,0h2.3l0,0l10.9-10.4l10.8,10.3l-0.1,0.1h0.1
	h2.2h0.1l-0.1-0.1l15.6-14.9l15.6,14.9l-0.1,0.1h0.1h2.2h0.1l-0.1-0.1l15.6-14.9l15.6,14.9l-0.1,0.1h0.1h2.2h0.1l-0.1-0.1l10.4-9.9
	v15.4H396.1z"/>
<polygon class="st1" points="226.2,122.4 227.4,121.3 227.4,121.3 227.4,121.3 225.1,121.3 225.1,121.3 225.1,121.3 "/>
<polygon class="st1" points="259.8,122.4 260.9,121.3 260.9,121.3 260.9,121.3 258.6,121.3 258.6,121.3 258.6,121.3 "/>
<polygon class="st1" points="293.3,122.4 294.5,121.3 294.5,121.3 294.5,121.3 292.2,121.3 292.2,121.3 292.2,121.3 "/>
<polygon class="st1" points="318.3,121.3 316.1,121.3 317.2,122.3 "/>
<polygon class="st1" points="351.7,121.3 349.6,121.3 350.6,122.3 "/>
<polygon class="st1" points="385.1,121.3 382.9,121.3 384,122.3 "/>
<rect x="-480.7" y="-100.5" class="st1" width="428.4" height="540"/>
<g>
	<path class="st0" d="M-694.2,175.9c-0.8,0-1.7-0.1-2.7-0.1c-0.9,0-1.7,0-2.6,0.1v-0.1c1.2-0.2,1.4-0.3,1.5-2.7v-15.8
		c0-1.1-0.1-1.8-0.4-2.1c-0.2-0.3-0.7-0.5-1.4-0.6v-0.1c0.8,0,2,0.1,3.8,0.1c4.6,0,7.3,0,8.2-0.1c0,0.1,0,0.9,0,1.2
		c0,1.1-0.1,1.9-0.2,2.4h-0.1c0-1.3-0.3-2-0.9-2.3c-0.6-0.3-2.1-0.4-4.3-0.4c-1.2,0-2,0.1-2.5,0.2v8.6c2.7,0,4.3-0.1,4.8-0.3
		c0.6-0.2,0.9-0.6,1.1-1.4c0.1-0.2,0.1-0.6,0.1-1h0.1c0,1.2-0.1,2.2-0.1,3.1c0,0.5,0,1.4,0.1,2.8h-0.1c-0.1-1.2-0.4-1.7-1.1-2
		c-0.2-0.1-0.5-0.1-1.1-0.2c-0.5-0.1-1.1-0.1-1.6-0.1c-0.5,0-1.3,0-2.3,0v8c0,1.1,0.1,1.8,0.3,2.1c0.2,0.3,0.7,0.5,1.3,0.6V175.9z"
		/>
	<path class="st0" d="M-675.9,175.9c-0.8,0-1.7-0.1-2.6-0.1c-0.9,0-1.7,0-2.6,0.1v-0.1c1.2-0.2,1.4-0.3,1.5-2.7v-15.8
		c-0.1-2.4-0.3-2.5-1.5-2.7v-0.1c0.9,0,1.7,0.1,2.6,0.1c0.9,0,1.7,0,2.6-0.1v0.1c-1.2,0.2-1.4,0.3-1.5,2.7v15.8
		c0.1,2.4,0.3,2.5,1.5,2.7V175.9z"/>
	<path class="st0" d="M-648.8,176.5h-0.1l-16.7-18.6v2.6c0,7.3,0.1,11.6,0.3,12.9c0.1,1.1,0.5,1.7,0.9,2c0.1,0.1,0.4,0.2,0.8,0.3
		v0.1c-0.9,0-1.7-0.1-2.5-0.1c-0.7,0-1.5,0-2.3,0.1v-0.1c0.6-0.2,1-0.5,1.2-0.8c0.4-0.6,0.6-2.3,0.6-5.3c0-1.5,0.1-4.6,0.1-9.2V154
		h0.2l16.7,18.5v-2.6c0-7.4-0.1-11.8-0.3-13.1c-0.1-1-0.5-1.6-1-1.9c-0.1-0.1-0.4-0.2-0.7-0.3c0,0-0.1,0-0.1,0v-0.1
		c1.7,0.1,3.3,0.1,4.9,0v0.1c-0.6,0.2-1.1,0.4-1.3,0.7c-0.4,0.6-0.6,2.2-0.7,5c0,1.6-0.1,4.7-0.1,9.4V176.5z"/>
	<path class="st0" d="M-621.1,171.1c-0.1,0.9-0.2,1.9-0.2,3.1c-2.5,1.3-5,1.9-7.4,1.9c-3.6,0-6.7-1.3-8.6-3.4
		c-1.9-2.1-2.9-4.7-2.9-7.5c0-2.7,1-5.4,2.8-7.5c1.8-2.1,4.9-3.5,8.4-3.5c1.2,0,2.6,0.2,3.6,0.4c0.6,0.1,1.8,0.4,2.1,0.5
		c0.2,0,0.5,0.1,1,0.3l0.9,0.2c-0.1,0.8-0.1,1.7-0.1,2.8c0,0.4,0,1,0,1.1h-0.1c-0.1-1.5-0.9-2.7-2.2-3.5c-1.4-0.8-3.1-1.2-5.1-1.2
		c-2.4,0-4.4,0.8-6,2.5c-1.6,1.6-2.6,4.4-2.6,8c0,3.4,1.2,6.2,3,7.7c1.9,1.5,4,2.3,6.3,2.3c1.6,0,3-0.4,4.3-1.1
		c1.3-0.7,2.2-1.8,2.6-3.2H-621.1z"/>
	<path class="st0" d="M-598.2,175.9c-1.6-0.1-3.4-0.1-5.2,0v-0.1c0.9-0.1,1.3-0.4,1.3-1c0-0.2-0.1-0.7-0.4-1.5l-1.7-5.5h-3.4
		c-1.4,0-2.4,0-3.1,0l-1.8,4.8c-0.3,0.9-0.5,1.6-0.5,2c0,0.8,0.4,1.2,1.4,1.3v0.1c-0.9,0-1.8-0.1-2.7-0.1c-0.5,0-1.2,0-2,0.1v-0.1
		c0.8-0.2,1.4-0.5,1.7-0.9c0.4-0.5,0.9-1.5,1.5-3.1l6.7-17.7h0.3l6.2,19.5c0.3,1,0.6,1.6,0.7,1.8c0.1,0.2,0.5,0.4,1.1,0.4V175.9z
		 M-604.4,166.8l-2.7-8.7l-3.2,8.7c0.6,0,1.6,0,2.8,0H-604.4z"/>
	<path class="st0" d="M-778.7,206.7c0,0.4-0.1,0.6-0.1,0.7c0,1.1,0.4,2,1.4,2.7c0.9,0.7,2,1,3.3,1c2.2,0,4-1.4,4-4
		c0-5.9-8.8-5.8-8.8-12.2c0-1.6,0.5-2.8,1.5-3.8c1-1,2.3-1.5,3.9-1.5c0.6,0,1.3,0.1,2.1,0.2c0.9,0.1,1.4,0.2,1.8,0.2
		c0.2,0,0.4,0,0.5,0c-0.1,0.6-0.1,1.3-0.1,1.9c0,0.8,0,1.3,0,1.6h-0.2c-0.4-2.3-1.8-3.4-4.1-3.4c-2,0-3.6,1.1-3.6,3.3
		c0,0.9,0.2,1.6,0.6,2.4c0.9,1.4,2.2,2.2,3.7,3.3c0.8,0.6,1.5,1.1,2.1,1.6c1.3,1.1,2.3,2.8,2.3,4.9c0,1.8-0.6,3.3-1.7,4.4
		c-1.1,1.1-2.6,1.6-4.4,1.6c-0.7,0-1.5-0.1-2.3-0.3c-0.9-0.2-1.5-0.3-1.9-0.3c-0.2,0-0.3,0-0.4,0c0-0.1,0-0.4,0-0.8
		c0-0.4-0.1-1.5-0.1-2c0-0.7,0.1-1.3,0.4-1.9H-778.7z"/>
	<path class="st0" d="M-745.4,211.7c-1.6-0.1-3.4-0.1-5.2,0v-0.1c0.9-0.1,1.3-0.4,1.3-1c0-0.2-0.1-0.7-0.4-1.5l-1.7-5.5h-3.4
		c-1.4,0-2.4,0-3.1,0l-1.8,4.8c-0.3,0.9-0.5,1.6-0.5,2c0,0.8,0.4,1.2,1.4,1.3v0.1c-0.9,0-1.8-0.1-2.7-0.1c-0.5,0-1.2,0-2,0.1v-0.1
		c0.8-0.2,1.4-0.5,1.7-0.9c0.4-0.5,0.9-1.5,1.5-3.1l6.7-17.7h0.3l6.2,19.5c0.3,1,0.6,1.6,0.7,1.8c0.1,0.2,0.5,0.4,1.1,0.4V211.7z
		 M-751.6,202.6l-2.7-8.7l-3.2,8.7c0.6,0,1.6,0,2.8,0H-751.6z"/>
	<path class="st0" d="M-719.7,212.3h-0.1l-16.7-18.6v2.6c0,7.3,0.1,11.6,0.3,12.9c0.1,1.1,0.5,1.7,0.9,2c0.1,0.1,0.4,0.2,0.8,0.3
		v0.1c-0.9,0-1.7-0.1-2.5-0.1c-0.7,0-1.5,0-2.3,0.1v-0.1c0.6-0.2,1-0.5,1.2-0.8c0.4-0.6,0.6-2.3,0.6-5.3c0-1.5,0.1-4.6,0.1-9.2v-6.5
		h0.2l16.7,18.5v-2.6c0-7.4-0.1-11.8-0.3-13.1c-0.1-1-0.5-1.6-1-1.9c-0.1-0.1-0.4-0.2-0.7-0.3c0,0-0.1,0-0.1,0v-0.1
		c1.7,0.1,3.3,0.1,4.9,0v0.1c-0.6,0.2-1.1,0.4-1.3,0.7c-0.4,0.6-0.6,2.2-0.7,5c0,1.6-0.1,4.7-0.1,9.4V212.3z"/>
	<path class="st0" d="M-679.7,206.9c-0.1,0.9-0.2,1.9-0.2,3.1c-2.5,1.3-5,1.9-7.4,1.9c-3.6,0-6.7-1.3-8.6-3.4
		c-1.9-2.1-2.9-4.7-2.9-7.5c0-2.7,1-5.4,2.8-7.5c1.8-2.1,4.9-3.5,8.4-3.5c1.2,0,2.6,0.2,3.6,0.4c0.6,0.1,1.8,0.4,2.1,0.5
		c0.2,0,0.5,0.1,1,0.3l0.9,0.2c-0.1,0.8-0.1,1.7-0.1,2.8c0,0.4,0,1,0,1.1h-0.1c-0.1-1.5-0.9-2.7-2.2-3.5c-1.4-0.8-3.1-1.2-5.1-1.2
		c-2.4,0-4.4,0.8-6,2.5c-1.6,1.6-2.6,4.4-2.6,8c0,3.4,1.2,6.2,3,7.7c1.9,1.5,4,2.3,6.3,2.3c1.6,0,3-0.4,4.3-1.1
		c1.3-0.7,2.2-1.8,2.6-3.2H-679.7z"/>
	<path class="st0" d="M-656.8,211.7c-1.6-0.1-3.4-0.1-5.2,0v-0.1c0.9-0.1,1.3-0.4,1.3-1c0-0.2-0.1-0.7-0.4-1.5l-1.7-5.5h-3.4
		c-1.4,0-2.4,0-3.1,0l-1.8,4.8c-0.3,0.9-0.5,1.6-0.5,2c0,0.8,0.4,1.2,1.4,1.3v0.1c-0.9,0-1.8-0.1-2.7-0.1c-0.5,0-1.2,0-2,0.1v-0.1
		c0.8-0.2,1.4-0.5,1.7-0.9c0.4-0.5,0.9-1.5,1.5-3.1l6.7-17.7h0.3l6.2,19.5c0.3,1,0.6,1.6,0.7,1.8c0.1,0.2,0.5,0.4,1.1,0.4V211.7z
		 M-663,202.6l-2.7-8.7l-3.2,8.7c0.6,0,1.6,0,2.8,0H-663z"/>
	<path class="st0" d="M-640.9,211.7c-0.8,0-1.7-0.1-2.6-0.1c-0.9,0-1.7,0-2.6,0.1v-0.1c0.6-0.1,1-0.3,1.2-0.6c0.2-0.3,0.3-1,0.3-2.1
		v-4.4l-5.9-11.9c-0.8-1.6-1.1-2-2.1-2.2v-0.1c0.8,0,1.8,0.1,2.9,0.1c0.9,0,1.8,0,2.6-0.1v0.1c-0.9,0.1-1.3,0.4-1.3,0.9
		c0,0.4,0.2,0.9,0.6,1.6l4.9,10l3.6-7.1c0.1-0.2,0.2-0.5,0.4-0.9c0.9-1.7,1.3-2.7,1.4-3.1c0-0.1,0-0.3,0-0.4c0-0.6-0.4-0.9-1.2-1.1
		v-0.1c0.9,0,1.6,0.1,2.1,0.1c0.7,0,1.4,0,2.2-0.1v0.1c-0.6,0.1-1,0.4-1.3,0.7c-0.3,0.3-0.9,1.4-1.8,3.1l-1.1,2.1l-4.1,7.7v4.9
		c0,1.1,0.1,1.8,0.3,2.1c0.2,0.3,0.6,0.5,1.2,0.6V211.7z"/>
	<path class="st0" d="M-616.7,207.8c0,1.8-0.2,3.1-0.2,3.9c-1.8-0.1-3.9-0.1-6.1-0.1c-3.1,0-5.1,0-5.9,0.1v-0.1
		c1.4-0.2,1.7-0.7,1.7-2.7V193c0-1.1-0.1-1.8-0.4-2.1c-0.2-0.3-0.7-0.5-1.4-0.6v-0.1c0.8,0,2,0.1,3.8,0.1c4.6,0,7.3,0,8.2-0.1
		c0,0.1,0,0.9,0,1.2c0,1.1-0.1,1.9-0.2,2.4h-0.1c0-1.3-0.3-2-0.9-2.3c-0.6-0.3-2.1-0.4-4.3-0.4c-1.2,0-2,0.1-2.5,0.2v8.8h2.3
		c1,0,2.3-0.2,2.6-0.3c0.7-0.4,1.1-0.8,1.2-2h0.1c0,1.2-0.1,2.1-0.1,2.7c0,0.7,0,1.7,0.1,3h-0.1c-0.1-1.3-0.5-1.9-1.2-2.2
		c-0.2-0.1-0.5-0.2-1.1-0.2c-0.6-0.1-1.1-0.1-1.6-0.1c-0.5,0-1.3,0-2.3,0v9.6c0.3,0.1,1.1,0.2,2.5,0.2h2c0.8,0,2.1-0.1,2.4-0.4
		c0.6-0.4,1.1-1.1,1.2-2.6H-616.7z"/>
	<path class="st0" d="M-600.3,211.7c-0.8,0-1.7-0.1-2.6-0.1c-0.9,0-1.7,0-2.6,0.1v-0.1c1.2-0.2,1.4-0.3,1.5-2.7v-17.5
		c-2.6,0-4.2,0.1-5.1,0.3c-0.8,0.2-1.4,0.7-1.9,1.6h-0.1c0.1-0.3,0.2-0.9,0.4-1.6c0.2-0.7,0.4-1.5,0.6-2.1h0.1
		c0,0.4,0.3,0.6,0.7,0.8c0.6,0.1,2.4,0.2,5.7,0.2c3.5,0,5.7,0,6.6-0.1c0.9-0.1,1.6-0.3,2-0.6h0.2c-0.1,0.2-0.3,0.7-0.5,1.5
		c-0.2,0.8-0.4,1.3-0.4,1.6h-0.2c0-0.1,0.1-0.3,0.1-0.4c0-0.5-0.2-0.7-1.1-0.9c-0.9-0.1-2.2-0.2-4.9-0.2v17.5
		c0.1,2.4,0.3,2.5,1.5,2.7V211.7z"/>
	<path class="st0" d="M-575.2,211.7c-1.6-0.1-3.4-0.1-5.2,0v-0.1c0.9-0.1,1.3-0.4,1.3-1c0-0.2-0.1-0.7-0.4-1.5l-1.7-5.5h-3.4
		c-1.4,0-2.4,0-3.1,0l-1.8,4.8c-0.3,0.9-0.5,1.6-0.5,2c0,0.8,0.4,1.2,1.4,1.3v0.1c-0.9,0-1.8-0.1-2.7-0.1c-0.5,0-1.2,0-2,0.1v-0.1
		c0.8-0.2,1.4-0.5,1.7-0.9c0.4-0.5,0.9-1.5,1.5-3.1l6.7-17.7h0.3l6.2,19.5c0.3,1,0.6,1.6,0.7,1.8c0.1,0.2,0.5,0.4,1.1,0.4V211.7z
		 M-581.5,202.6l-2.7-8.7l-3.2,8.7c0.6,0,1.6,0,2.8,0H-581.5z"/>
	<path class="st0" d="M-549.6,212.3h-0.1l-16.7-18.6v2.6c0,7.3,0.1,11.6,0.3,12.9c0.1,1.1,0.5,1.7,0.9,2c0.1,0.1,0.4,0.2,0.8,0.3
		v0.1c-0.9,0-1.7-0.1-2.5-0.1c-0.7,0-1.5,0-2.3,0.1v-0.1c0.6-0.2,1-0.5,1.2-0.8c0.4-0.6,0.6-2.3,0.6-5.3c0-1.5,0.1-4.6,0.1-9.2v-6.5
		h0.2l16.7,18.5v-2.6c0-7.4-0.1-11.8-0.3-13.1c-0.1-1-0.5-1.6-1-1.9c-0.1-0.1-0.4-0.2-0.7-0.3c0,0-0.1,0-0.1,0v-0.1
		c1.7,0.1,3.3,0.1,4.9,0v0.1c-0.6,0.2-1.1,0.4-1.3,0.7c-0.4,0.6-0.6,2.2-0.7,5c0,1.6-0.1,4.7-0.1,9.4V212.3z"/>
	<path class="st0" d="M-538,208.7c-1.9-2.1-2.9-4.7-2.9-7.5c0-1.9,0.4-3.7,1.3-5.3c0.9-1.7,2.1-3,3.8-4.1c1.7-1.1,3.6-1.6,5.7-1.6
		c2.9,0,5.4,1.1,7.4,3.1c2,2.1,3.1,4.7,3.1,7.8c0,3-1,5.6-3.1,7.7c-2,2.1-4.6,3.1-7.6,3.1C-533.5,211.9-536,210.8-538,208.7z
		 M-524.6,208.7c1.5-1.7,2.2-4.2,2.2-7.4c0-3.5-0.8-6.1-2.4-7.9c-1.6-1.8-3.4-2.6-5.7-2.6c-2,0-3.9,0.8-5.4,2.4
		c-1.5,1.6-2.4,4.4-2.4,7.9c0,3.4,0.7,5.9,2.2,7.6c1.4,1.7,3.3,2.6,5.6,2.6C-528,211.2-526.1,210.4-524.6,208.7z"/>
</g>
<g>
	<path class="st2" d="M-747.3,240.9h-2.2c-0.2,0-0.3,0.1-0.3,0.3v1c0,0.8,0,1.5,0.1,2h-1.2c0.1-0.5,0.1-1.2,0.1-2v-4.4
		c0-0.9,0-1.5-0.1-2h3.7c1.6,0,2.4,0.9,2.4,2.5c0,1.3-0.4,2.1-1.6,2.4l0.8,1.5c0.5,0.9,0.9,1.6,1.2,2h-1.3c-0.2-0.5-0.5-1.2-1-1.9
		L-747.3,240.9z M-749.4,236.6c-0.2,0-0.3,0.1-0.3,0.3v3.2h2.7c0.9,0,1.4-0.6,1.4-1.8c0-1.2-0.5-1.7-1.5-1.7H-749.4z"/>
	<path class="st2" d="M-730.8,244.3c0.1-0.5,0.1-1.2,0.1-2v-4.4c0-0.8,0-1.5-0.1-2h5.7v0.9c-0.5-0.1-1.2-0.1-2-0.1h-2.3
		c-0.2,0-0.3,0.1-0.3,0.3v2.2h2.2c0.8,0,1.5,0,2-0.1v1c-0.5-0.1-1.2-0.1-2-0.1h-1.9c-0.2,0-0.3,0.1-0.3,0.3v3.2h2.7
		c0.8,0,1.5,0,2-0.1v0.9H-730.8z"/>
	<path class="st2" d="M-710.9,241.8c0,1.3,0.8,1.8,2.2,1.8c0.5,0,0.9,0,1.4-0.2c0.6-0.2,1-0.6,1-1.5c0-1.3-0.8-1.7-2.3-1.7
		c-0.9,0-1.5-0.1-2.1-0.4c-0.6-0.3-1-1-1-1.9c0-1.5,1-2.2,3.1-2.2c0.8,0,1.4,0.1,1.9,0.4c0.6,0.3,1,0.8,1.1,1.5l-1.1,0.1
		c-0.2-0.9-0.8-1.2-2-1.2c-0.6,0-0.9,0-1.4,0.2c-0.5,0.2-0.8,0.6-0.8,1.2c0,0.6,0.2,1,0.6,1.2c0.4,0.2,0.8,0.2,1.5,0.2
		c1.6,0,3.2,0.5,3.2,2.6c0,1-0.4,1.7-1,2c-0.7,0.3-1.4,0.5-2.3,0.5c-2.2,0-3.3-0.8-3.3-2.5L-710.9,241.8z"/>
	<path class="st2" d="M-690.3,244.3c0.1-0.5,0.1-1.2,0.1-2v-5.6h-0.6c-0.9,0-1.5,0-2,0.1v-0.9h6.3v0.9c-0.5-0.1-1.2-0.1-2-0.1h-0.3
		c-0.2,0-0.3,0.1-0.3,0.3v5.3c0,0.8,0,1.5,0.1,2H-690.3z"/>
	<path class="st2" d="M-675.3,244.3c0.3-0.6,0.5-1.2,0.8-2l2.1-6.4h1.8l2.1,6.4c0.3,0.8,0.5,1.5,0.8,2h-1.2c-0.1-0.5-0.3-1.2-0.5-2
		l-0.1-0.4h-3.7c-0.2,0-0.4,0.1-0.4,0.3c-0.3,0.8-0.5,1.5-0.5,2H-675.3z M-671.8,236.6l-1.5,4.5h3.2c0.2,0,0.3-0.1,0.2-0.3l-1.4-4.2
		H-671.8z"/>
	<path class="st2" d="M-647.4,235.9c-0.1,0.5-0.1,1.2-0.1,2v2.9c0,2.4-1,3.6-3.4,3.6c-2.4,0-3.4-1.1-3.4-3.6v-2.9c0-0.8,0-1.5-0.1-2
		h1.2c-0.1,0.5-0.1,1.1-0.1,2v3c0,0.9,0.2,1.6,0.5,2.1c0.3,0.4,1,0.7,1.9,0.7c0.9,0,1.5-0.2,1.9-0.6c0.4-0.4,0.6-1.1,0.6-2.1v-3
		c0-0.9,0-1.5-0.1-2H-647.4z"/>
	<path class="st2" d="M-629.4,240.9h-2.2c-0.2,0-0.3,0.1-0.3,0.3v1c0,0.8,0,1.5,0.1,2h-1.2c0.1-0.5,0.1-1.2,0.1-2v-4.4
		c0-0.9,0-1.5-0.1-2h3.7c1.6,0,2.4,0.9,2.4,2.5c0,1.3-0.4,2.1-1.6,2.4l0.8,1.5c0.5,0.9,0.9,1.6,1.2,2h-1.3c-0.2-0.5-0.5-1.2-1-1.9
		L-629.4,240.9z M-631.6,236.6c-0.2,0-0.3,0.1-0.3,0.3v3.2h2.7c0.9,0,1.4-0.6,1.4-1.8c0-1.2-0.5-1.7-1.5-1.7H-631.6z"/>
	<path class="st2" d="M-613.7,244.3c0.3-0.6,0.5-1.2,0.8-2l2.1-6.4h1.8l2.1,6.4c0.3,0.8,0.5,1.5,0.8,2h-1.2c-0.1-0.5-0.3-1.2-0.5-2
		l-0.1-0.4h-3.7c-0.2,0-0.4,0.1-0.4,0.3c-0.3,0.8-0.5,1.5-0.5,2H-613.7z M-610.2,236.6l-1.5,4.5h3.2c0.2,0,0.3-0.1,0.2-0.3l-1.4-4.2
		H-610.2z"/>
	<path class="st2" d="M-592.7,244.3c0.1-0.5,0.1-1.1,0.1-2v-4.4c0-0.9,0-1.6-0.1-2h2l3.9,7.6h0.5v-5.6c0-0.9,0-1.6-0.1-2h1
		c-0.1,0.5-0.1,1.2-0.1,2v4.4c0,0.9,0,1.5,0.1,2h-2l-3.9-7.6h-0.5v5.6c0,0.9,0,1.5,0.1,2H-592.7z"/>
	<path class="st2" d="M-569.8,244.3c0.1-0.5,0.1-1.2,0.1-2v-5.6h-0.6c-0.9,0-1.5,0-2,0.1v-0.9h6.3v0.9c-0.5-0.1-1.2-0.1-2-0.1h-0.3
		c-0.2,0-0.3,0.1-0.3,0.3v5.3c0,0.8,0,1.5,0.1,2H-569.8z"/>
	<path class="st2" d="M-553,244.3c0.1-0.5,0.1-1.2,0.1-2v-4.4c0-0.8,0-1.5-0.1-2h5.7v0.9c-0.5-0.1-1.2-0.1-2-0.1h-2.3
		c-0.2,0-0.3,0.1-0.3,0.3v2.2h2.2c0.8,0,1.5,0,2-0.1v1c-0.5-0.1-1.2-0.1-2-0.1h-1.9c-0.2,0-0.3,0.1-0.3,0.3v3.2h2.7
		c0.8,0,1.5,0,2-0.1v0.9H-553z"/>
</g>
<path class="st1" d="M-639.4,79.4c-2.5-2.9-6.2-4.8-10.3-4.8c-4.1,0-7.8,1.9-10.3,4.8h-32.2v12.3v1v13.8v1v13.8v1v7.9h8.6h1.1h7.8
	h1.1h5.7h1.1h7.8h1.1h5.7l0.1,0.1l0.1-0.1h11h1.1h7.7h1.1h5.8h1.1h7.7h1.1h5.8l0.1,0.1l0.1-0.1h3v-7.5v-1v-13.8v-1V93.1v-1V79.4
	H-639.4z M-607.5,80.2v11.6l-21,20l-13.2-12.5c3.3-2.5,5.5-6.5,5.5-10.9c0-3-1-5.8-2.7-8.1H-607.5z M-607.5,106.6l-13.2,12.6
	l-7.3-6.9l20.5-19.5V106.6z M-607.5,121.4l-5.4,5.1l-7.3-6.9l12.6-12V121.4z M-649.7,106.4l-13.4,12.8l-7.3-6.9l13.2-12.6
	c2.1,1.4,4.7,2.2,7.4,2.2c2.8,0,5.3-0.8,7.5-2.2l13.3,12.6l-7.3,6.9L-649.7,106.4z M-636.9,119.6l-7.3,6.9l-5.6-5.3l-5.6,5.3
	l-7.3-6.9l12.9-12.3L-636.9,119.6z M-691.5,107.9l12.3,11.7l-7.3,6.9l-5.1-4.8V107.9z M-691.5,106.9V93.1l20.1,19.2l-7.3,6.9
	L-691.5,106.9z M-670.9,112.8l7.3,6.9l-7.3,6.9l-7.3-6.9L-670.9,112.8z M-649.4,91.8l-0.3-0.2l-7.5,7.2c-3.3-2.3-5.4-6.2-5.4-10.5
	c0-3.1,1.1-5.9,2.9-8.1h20c1.8,2.2,2.9,5,2.9,8.1c0,4.3-2.1,8.1-5.3,10.4L-649.4,91.8z M-642.8,99.1c-2,1.3-4.4,2-6.9,2
	c-2.5,0-4.8-0.7-6.8-2l6.9-6.6L-642.8,99.1z M-628.5,112.7l7.3,6.9l-7.3,6.9l-7.3-6.9L-628.5,112.7z M-649.8,75.4c3.7,0,7,1.6,9.4,4
	h-18.7C-656.8,76.9-653.4,75.4-649.8,75.4z M-691.5,80.2h30.9c-1.7,2.3-2.7,5.1-2.7,8.1c0,4.5,2.2,8.5,5.6,11l-13.1,12.5l-20.7-19.7
	V80.2z M-607.5,129.6h-2.2l0,0h-1.1l0,0h-4.2l0,0h-1.1l0,0h-9.3l0,0h-1.1l0,0h-4.2l0,0h-1.1l0,0h-9.3l0,0h-1.1l0,0h-10.1l0,0h-1.1
	l0,0h-4.1l0,0h-1.1l0,0h-9.3l0,0h-1.1l0,0h-4.1l0,0h-1.1l0,0h-9.3l0,0h-1.1l0,0h-7.1v-6.8l4.5,4.3h0h1.1h0l7.3-6.9l7.3,6.9h0h1.1h0
	l7.3-6.9l7.3,6.9h0h1.1h0l5.1-4.8l5,4.8l0,0h0.1h1h0.1l0,0l7.3-6.9l7.3,6.9l0,0h0.1h1h0.1l0,0l7.3-6.9l7.3,6.9l0,0h0.1h1h0.1l0,0
	l4.8-4.6V129.6z"/>
<polygon class="st3" points="-686.5,127.6 -686,127.1 -686,127.1 -686,127.1 -687,127.1 -687,127.1 -687,127.1 "/>
<polygon class="st3" points="-670.9,127.6 -670.4,127.1 -670.4,127.1 -670.4,127.1 -671.4,127.1 -671.4,127.1 -671.4,127.1 "/>
<polygon class="st3" points="-655.3,127.6 -654.8,127.1 -654.7,127.1 -654.8,127.1 -655.8,127.1 -655.8,127.1 -655.8,127.1 "/>
<polygon class="st3" points="-643.6,127.1 -644.6,127.1 -644.1,127.6 "/>
<polygon class="st3" points="-628,127.1 -629,127.1 -628.5,127.6 "/>
<polygon class="st3" points="-612.4,127.1 -613.4,127.1 -612.9,127.6 "/>
</svg>
