<?xml version="1.0" encoding="utf-8"?>
<!-- Generator: Adobe Illustrator 25.4.1, SVG Export Plug-In . SVG Version: 6.00 Build 0)  -->
<svg version="1.1" id="Layer_1" xmlns="http://www.w3.org/2000/svg" xmlns:xlink="http://www.w3.org/1999/xlink" x="0px" y="0px"
	 viewBox="0 0 1920 142" style="enable-background:new 0 0 1920 142;" xml:space="preserve">
<style type="text/css">
	
		.st0{clip-path:url(#SVGID_00000095321948717838037980000001541805405642337429_);fill:#262A4A;stroke:#F4EFE9;stroke-width:1.5;stroke-miterlimit:10;}
	.st1{clip-path:url(#SVGID_00000095321948717838037980000001541805405642337429_);fill:none;stroke:#A58D6C;stroke-miterlimit:10;}
	.st2{clip-path:url(#SVGID_00000095321948717838037980000001541805405642337429_);}
	.st3{fill:none;stroke:#A58D6C;stroke-miterlimit:10;}
	
		.st4{clip-path:url(#SVGID_00000172401153187358955440000001341346189987100833_);fill:#262A4A;stroke:#F4EFE9;stroke-width:1.5;stroke-miterlimit:10;}
	.st5{clip-path:url(#SVGID_00000172401153187358955440000001341346189987100833_);fill:none;stroke:#A58D6C;stroke-miterlimit:10;}
	.st6{clip-path:url(#SVGID_00000172401153187358955440000001341346189987100833_);}
	
		.st7{clip-path:url(#SVGID_00000127017972213897237540000014155810222797000608_);fill:#262A4A;stroke:#F4EFE9;stroke-width:1.5;stroke-miterlimit:10;}
	.st8{clip-path:url(#SVGID_00000127017972213897237540000014155810222797000608_);fill:none;stroke:#A58D6C;stroke-miterlimit:10;}
	.st9{clip-path:url(#SVGID_00000127017972213897237540000014155810222797000608_);}
	
		.st10{clip-path:url(#SVGID_00000127725042107066797240000003809348158470804402_);fill:#262A4A;stroke:#F4EFE9;stroke-width:1.5;stroke-miterlimit:10;}
	.st11{clip-path:url(#SVGID_00000127725042107066797240000003809348158470804402_);fill:none;stroke:#A58D6C;stroke-miterlimit:10;}
	.st12{clip-path:url(#SVGID_00000127725042107066797240000003809348158470804402_);}
	
		.st13{clip-path:url(#SVGID_00000097477923903326330160000010994028803825112732_);fill:#262A4A;stroke:#F4EFE9;stroke-width:1.5;stroke-miterlimit:10;}
	.st14{clip-path:url(#SVGID_00000097477923903326330160000010994028803825112732_);fill:none;stroke:#A58D6C;stroke-miterlimit:10;}
	.st15{clip-path:url(#SVGID_00000097477923903326330160000010994028803825112732_);}
	
		.st16{clip-path:url(#SVGID_00000070807021212362655590000005865129732891994549_);fill:#262A4A;stroke:#F4EFE9;stroke-width:1.5;stroke-miterlimit:10;}
	.st17{clip-path:url(#SVGID_00000070807021212362655590000005865129732891994549_);fill:none;stroke:#A58D6C;stroke-miterlimit:10;}
	.st18{clip-path:url(#SVGID_00000070807021212362655590000005865129732891994549_);}
	
		.st19{clip-path:url(#SVGID_00000076591342207705967850000009828549130595450776_);fill:#262A4A;stroke:#F4EFE9;stroke-width:1.5;stroke-miterlimit:10;}
	.st20{clip-path:url(#SVGID_00000076591342207705967850000009828549130595450776_);fill:none;stroke:#A58D6C;stroke-miterlimit:10;}
	.st21{clip-path:url(#SVGID_00000076591342207705967850000009828549130595450776_);}
	
		.st22{clip-path:url(#SVGID_00000176744438650290195720000004442095640494372507_);fill:#262A4A;stroke:#F4EFE9;stroke-width:1.5;stroke-miterlimit:10;}
	.st23{clip-path:url(#SVGID_00000176744438650290195720000004442095640494372507_);fill:none;stroke:#A58D6C;stroke-miterlimit:10;}
	.st24{clip-path:url(#SVGID_00000176744438650290195720000004442095640494372507_);}
	
		.st25{clip-path:url(#SVGID_00000072976649332386838220000003034183561752865417_);fill:#262A4A;stroke:#F4EFE9;stroke-width:1.5;stroke-miterlimit:10;}
	.st26{clip-path:url(#SVGID_00000072976649332386838220000003034183561752865417_);fill:none;stroke:#A58D6C;stroke-miterlimit:10;}
	.st27{clip-path:url(#SVGID_00000072976649332386838220000003034183561752865417_);}
	
		.st28{clip-path:url(#SVGID_00000057870985204517950840000015299618278572726164_);fill:#262A4A;stroke:#F4EFE9;stroke-width:1.5;stroke-miterlimit:10;}
	.st29{clip-path:url(#SVGID_00000057870985204517950840000015299618278572726164_);fill:none;stroke:#A58D6C;stroke-miterlimit:10;}
	.st30{clip-path:url(#SVGID_00000057870985204517950840000015299618278572726164_);}
	
		.st31{clip-path:url(#SVGID_00000096022185387934265440000016569610695735265450_);fill:#262A4A;stroke:#F4EFE9;stroke-width:1.5;stroke-miterlimit:10;}
	.st32{clip-path:url(#SVGID_00000096022185387934265440000016569610695735265450_);fill:none;stroke:#A58D6C;stroke-miterlimit:10;}
	.st33{clip-path:url(#SVGID_00000096022185387934265440000016569610695735265450_);}
	
		.st34{clip-path:url(#SVGID_00000026845395444085530590000013432746936607243452_);fill:#262A4A;stroke:#F4EFE9;stroke-width:1.5;stroke-miterlimit:10;}
	.st35{clip-path:url(#SVGID_00000026845395444085530590000013432746936607243452_);fill:none;stroke:#A58D6C;stroke-miterlimit:10;}
	.st36{clip-path:url(#SVGID_00000026845395444085530590000013432746936607243452_);}
	
		.st37{clip-path:url(#SVGID_00000044160203449758142780000017936535565614471098_);fill:#262A4A;stroke:#F4EFE9;stroke-width:1.5;stroke-miterlimit:10;}
	.st38{clip-path:url(#SVGID_00000044160203449758142780000017936535565614471098_);fill:none;stroke:#A58D6C;stroke-miterlimit:10;}
	.st39{clip-path:url(#SVGID_00000044160203449758142780000017936535565614471098_);}
</style>
<g>
	<defs>
		<rect id="SVGID_1_" x="703" y="504.8" width="611.8" height="339.3"/>
	</defs>
	<clipPath id="SVGID_00000052101192489864343980000008365459535070815133_">
		<use xlink:href="#SVGID_1_"  style="overflow:visible;"/>
	</clipPath>
</g>
<g>
	<g>
		<g>
			<defs>
				<rect id="SVGID_00000011716032932407225460000013727908503777539226_" x="5.4" y="2.1" width="146.8" height="139.7"/>
			</defs>
			<clipPath id="SVGID_00000104671086264521163200000000485896827269706927_">
				<use xlink:href="#SVGID_00000011716032932407225460000013727908503777539226_"  style="overflow:visible;"/>
			</clipPath>
			
				<path style="clip-path:url(#SVGID_00000104671086264521163200000000485896827269706927_);fill:#262A4A;stroke:#F4EFE9;stroke-width:1.5;stroke-miterlimit:10;" d="
				M13.3,36.4"/>
			
				<polyline style="clip-path:url(#SVGID_00000104671086264521163200000000485896827269706927_);fill:none;stroke:#A58D6C;stroke-miterlimit:10;" points="
				78.8,141.8 152.3,141.8 5.4,2.1 152.3,2.1 5.4,141.8 78.9,141.8 			"/>
			
				<line style="clip-path:url(#SVGID_00000104671086264521163200000000485896827269706927_);fill:none;stroke:#A58D6C;stroke-miterlimit:10;" x1="167.2" y1="17" x2="96.8" y2="84"/>
			
				<line style="clip-path:url(#SVGID_00000104671086264521163200000000485896827269706927_);fill:none;stroke:#A58D6C;stroke-miterlimit:10;" x1="182.8" y1="31.9" x2="127.9" y2="84.1"/>
			<g style="clip-path:url(#SVGID_00000104671086264521163200000000485896827269706927_);">
				<line class="st3" x1="-10.2" y1="17" x2="60.2" y2="84"/>
				<line class="st3" x1="-25.8" y1="31.9" x2="29" y2="84.1"/>
			</g>
			
				<line style="clip-path:url(#SVGID_00000104671086264521163200000000485896827269706927_);fill:none;stroke:#A58D6C;stroke-miterlimit:10;" x1="91.6" y1="84" x2="152.3" y2="84"/>
			
				<line style="clip-path:url(#SVGID_00000104671086264521163200000000485896827269706927_);fill:none;stroke:#A58D6C;stroke-miterlimit:10;" x1="5.4" y1="84" x2="66.1" y2="84"/>
			<g style="clip-path:url(#SVGID_00000104671086264521163200000000485896827269706927_);">
				<polyline class="st3" points="15.9,131.8 15.9,94.6 55.2,94.6 				"/>
				<polyline class="st3" points="26.5,121.8 26.5,105.1 44.1,105.1 				"/>
			</g>
			<g style="clip-path:url(#SVGID_00000104671086264521163200000000485896827269706927_);">
				<polyline class="st3" points="141.7,131.8 141.7,94.6 102.5,94.6 				"/>
				<polyline class="st3" points="131.2,121.8 131.2,105.1 113.6,105.1 				"/>
			</g>
			
				<polyline style="clip-path:url(#SVGID_00000104671086264521163200000000485896827269706927_);fill:none;stroke:#A58D6C;stroke-miterlimit:10;" points="
				16.5,161.1 78.7,101.9 140.9,161.1 			"/>
			
				<polyline style="clip-path:url(#SVGID_00000104671086264521163200000000485896827269706927_);fill:none;stroke:#A58D6C;stroke-miterlimit:10;" points="
				16.5,190.7 78.7,131.5 140.9,190.7 			"/>
			
				<path style="clip-path:url(#SVGID_00000104671086264521163200000000485896827269706927_);fill:none;stroke:#A58D6C;stroke-miterlimit:10;" d="
				M42.6,37.7c5.6-14.3,19.5-24.4,35.8-24.4c16.5,0,30.5,10.4,36,24.9"/>
			
				<use xlink:href="#SVGID_00000011716032932407225460000013727908503777539226_"  style="overflow:visible;fill:none;stroke:#A58D6C;stroke-miterlimit:10;"/>
		</g>
		<g>
			<defs>
				<rect id="SVGID_00000079454374882222224060000017812098357953978520_" x="152.3" y="2.1" width="146.8" height="139.7"/>
			</defs>
			<clipPath id="SVGID_00000150817044727505850260000006722709024351087290_">
				<use xlink:href="#SVGID_00000079454374882222224060000017812098357953978520_"  style="overflow:visible;"/>
			</clipPath>
			
				<path style="clip-path:url(#SVGID_00000150817044727505850260000006722709024351087290_);fill:#262A4A;stroke:#F4EFE9;stroke-width:1.5;stroke-miterlimit:10;" d="
				M160.1,36.4"/>
			
				<polyline style="clip-path:url(#SVGID_00000150817044727505850260000006722709024351087290_);fill:none;stroke:#A58D6C;stroke-miterlimit:10;" points="
				225.6,141.8 299.1,141.8 152.3,2.1 299.1,2.1 152.3,141.8 225.7,141.8 			"/>
			
				<line style="clip-path:url(#SVGID_00000150817044727505850260000006722709024351087290_);fill:none;stroke:#A58D6C;stroke-miterlimit:10;" x1="314" y1="17" x2="243.6" y2="84"/>
			
				<line style="clip-path:url(#SVGID_00000150817044727505850260000006722709024351087290_);fill:none;stroke:#A58D6C;stroke-miterlimit:10;" x1="329.6" y1="31.9" x2="274.8" y2="84.1"/>
			<g style="clip-path:url(#SVGID_00000150817044727505850260000006722709024351087290_);">
				<line class="st3" x1="136.6" y1="17" x2="207" y2="84"/>
				<line class="st3" x1="121" y1="31.9" x2="175.8" y2="84.1"/>
			</g>
			
				<line style="clip-path:url(#SVGID_00000150817044727505850260000006722709024351087290_);fill:none;stroke:#A58D6C;stroke-miterlimit:10;" x1="238.4" y1="84" x2="299.1" y2="84"/>
			
				<line style="clip-path:url(#SVGID_00000150817044727505850260000006722709024351087290_);fill:none;stroke:#A58D6C;stroke-miterlimit:10;" x1="152.2" y1="84" x2="212.9" y2="84"/>
			<g style="clip-path:url(#SVGID_00000150817044727505850260000006722709024351087290_);">
				<polyline class="st3" points="162.8,131.8 162.8,94.6 202,94.6 				"/>
				<polyline class="st3" points="173.3,121.8 173.3,105.1 190.9,105.1 				"/>
			</g>
			<g style="clip-path:url(#SVGID_00000150817044727505850260000006722709024351087290_);">
				<polyline class="st3" points="288.6,131.8 288.6,94.6 249.3,94.6 				"/>
				<polyline class="st3" points="278,121.8 278,105.1 260.5,105.1 				"/>
			</g>
			
				<polyline style="clip-path:url(#SVGID_00000150817044727505850260000006722709024351087290_);fill:none;stroke:#A58D6C;stroke-miterlimit:10;" points="
				163.3,161.1 225.5,101.9 287.7,161.1 			"/>
			
				<polyline style="clip-path:url(#SVGID_00000150817044727505850260000006722709024351087290_);fill:none;stroke:#A58D6C;stroke-miterlimit:10;" points="
				163.3,190.7 225.5,131.5 287.7,190.7 			"/>
			
				<path style="clip-path:url(#SVGID_00000150817044727505850260000006722709024351087290_);fill:none;stroke:#A58D6C;stroke-miterlimit:10;" d="
				M189.5,37.7c5.6-14.3,19.5-24.4,35.8-24.4c16.5,0,30.5,10.4,36,24.9"/>
			
				<use xlink:href="#SVGID_00000079454374882222224060000017812098357953978520_"  style="overflow:visible;fill:none;stroke:#A58D6C;stroke-miterlimit:10;"/>
		</g>
		<g>
			<defs>
				<rect id="SVGID_00000099639543535670352350000000032735391621650615_" x="299.1" y="2.1" width="146.8" height="139.7"/>
			</defs>
			<clipPath id="SVGID_00000138564574714686383520000010262337798745130401_">
				<use xlink:href="#SVGID_00000099639543535670352350000000032735391621650615_"  style="overflow:visible;"/>
			</clipPath>
			
				<path style="clip-path:url(#SVGID_00000138564574714686383520000010262337798745130401_);fill:#262A4A;stroke:#F4EFE9;stroke-width:1.5;stroke-miterlimit:10;" d="
				M307,36.4"/>
			
				<polyline style="clip-path:url(#SVGID_00000138564574714686383520000010262337798745130401_);fill:none;stroke:#A58D6C;stroke-miterlimit:10;" points="
				372.5,141.8 445.9,141.8 299.1,2.1 445.9,2.1 299.1,141.8 372.5,141.8 			"/>
			
				<line style="clip-path:url(#SVGID_00000138564574714686383520000010262337798745130401_);fill:none;stroke:#A58D6C;stroke-miterlimit:10;" x1="460.8" y1="17" x2="390.4" y2="84"/>
			
				<line style="clip-path:url(#SVGID_00000138564574714686383520000010262337798745130401_);fill:none;stroke:#A58D6C;stroke-miterlimit:10;" x1="476.4" y1="31.9" x2="421.6" y2="84.1"/>
			<g style="clip-path:url(#SVGID_00000138564574714686383520000010262337798745130401_);">
				<line class="st3" x1="283.4" y1="17" x2="353.8" y2="84"/>
				<line class="st3" x1="267.8" y1="31.9" x2="322.7" y2="84.1"/>
			</g>
			
				<line style="clip-path:url(#SVGID_00000138564574714686383520000010262337798745130401_);fill:none;stroke:#A58D6C;stroke-miterlimit:10;" x1="385.2" y1="84" x2="445.9" y2="84"/>
			
				<line style="clip-path:url(#SVGID_00000138564574714686383520000010262337798745130401_);fill:none;stroke:#A58D6C;stroke-miterlimit:10;" x1="299" y1="84" x2="359.7" y2="84"/>
			<g style="clip-path:url(#SVGID_00000138564574714686383520000010262337798745130401_);">
				<polyline class="st3" points="309.6,131.8 309.6,94.6 348.9,94.6 				"/>
				<polyline class="st3" points="320.1,121.8 320.1,105.1 337.7,105.1 				"/>
			</g>
			<g style="clip-path:url(#SVGID_00000138564574714686383520000010262337798745130401_);">
				<polyline class="st3" points="435.4,131.8 435.4,94.6 396.1,94.6 				"/>
				<polyline class="st3" points="424.9,121.8 424.9,105.1 407.3,105.1 				"/>
			</g>
			
				<polyline style="clip-path:url(#SVGID_00000138564574714686383520000010262337798745130401_);fill:none;stroke:#A58D6C;stroke-miterlimit:10;" points="
				310.1,161.1 372.3,101.9 434.5,161.1 			"/>
			
				<polyline style="clip-path:url(#SVGID_00000138564574714686383520000010262337798745130401_);fill:none;stroke:#A58D6C;stroke-miterlimit:10;" points="
				310.1,190.7 372.3,131.5 434.5,190.7 			"/>
			
				<path style="clip-path:url(#SVGID_00000138564574714686383520000010262337798745130401_);fill:none;stroke:#A58D6C;stroke-miterlimit:10;" d="
				M336.3,37.7c5.6-14.3,19.5-24.4,35.8-24.4c16.5,0,30.5,10.4,36,24.9"/>
			
				<use xlink:href="#SVGID_00000099639543535670352350000000032735391621650615_"  style="overflow:visible;fill:none;stroke:#A58D6C;stroke-miterlimit:10;"/>
		</g>
		<g>
			<defs>
				<rect id="SVGID_00000055701898389143935950000016456472170163412365_" x="445.9" y="2.1" width="146.8" height="139.7"/>
			</defs>
			<clipPath id="SVGID_00000072960014105991491590000002591072699030995600_">
				<use xlink:href="#SVGID_00000055701898389143935950000016456472170163412365_"  style="overflow:visible;"/>
			</clipPath>
			
				<path style="clip-path:url(#SVGID_00000072960014105991491590000002591072699030995600_);fill:#262A4A;stroke:#F4EFE9;stroke-width:1.5;stroke-miterlimit:10;" d="
				M453.8,36.4"/>
			
				<polyline style="clip-path:url(#SVGID_00000072960014105991491590000002591072699030995600_);fill:none;stroke:#A58D6C;stroke-miterlimit:10;" points="
				519.3,141.8 592.7,141.8 445.9,2.1 592.7,2.1 445.9,141.8 519.4,141.8 			"/>
			
				<line style="clip-path:url(#SVGID_00000072960014105991491590000002591072699030995600_);fill:none;stroke:#A58D6C;stroke-miterlimit:10;" x1="607.7" y1="17" x2="537.2" y2="84"/>
			
				<line style="clip-path:url(#SVGID_00000072960014105991491590000002591072699030995600_);fill:none;stroke:#A58D6C;stroke-miterlimit:10;" x1="623.2" y1="31.9" x2="568.4" y2="84.1"/>
			<g style="clip-path:url(#SVGID_00000072960014105991491590000002591072699030995600_);">
				<line class="st3" x1="430.2" y1="17" x2="500.7" y2="84"/>
				<line class="st3" x1="414.6" y1="31.9" x2="469.5" y2="84.1"/>
			</g>
			
				<line style="clip-path:url(#SVGID_00000072960014105991491590000002591072699030995600_);fill:none;stroke:#A58D6C;stroke-miterlimit:10;" x1="532" y1="84" x2="592.7" y2="84"/>
			
				<line style="clip-path:url(#SVGID_00000072960014105991491590000002591072699030995600_);fill:none;stroke:#A58D6C;stroke-miterlimit:10;" x1="445.8" y1="84" x2="506.5" y2="84"/>
			<g style="clip-path:url(#SVGID_00000072960014105991491590000002591072699030995600_);">
				<polyline class="st3" points="456.4,131.8 456.4,94.6 495.7,94.6 				"/>
				<polyline class="st3" points="467,121.8 467,105.1 484.5,105.1 				"/>
			</g>
			<g style="clip-path:url(#SVGID_00000072960014105991491590000002591072699030995600_);">
				<polyline class="st3" points="582.2,131.8 582.2,94.6 542.9,94.6 				"/>
				<polyline class="st3" points="571.7,121.8 571.7,105.1 554.1,105.1 				"/>
			</g>
			
				<polyline style="clip-path:url(#SVGID_00000072960014105991491590000002591072699030995600_);fill:none;stroke:#A58D6C;stroke-miterlimit:10;" points="
				457,161.1 519.2,101.9 581.4,161.1 			"/>
			
				<polyline style="clip-path:url(#SVGID_00000072960014105991491590000002591072699030995600_);fill:none;stroke:#A58D6C;stroke-miterlimit:10;" points="
				457,190.7 519.2,131.5 581.4,190.7 			"/>
			
				<path style="clip-path:url(#SVGID_00000072960014105991491590000002591072699030995600_);fill:none;stroke:#A58D6C;stroke-miterlimit:10;" d="
				M483.1,37.7c5.6-14.3,19.5-24.4,35.8-24.4c16.5,0,30.5,10.4,36,24.9"/>
			
				<use xlink:href="#SVGID_00000055701898389143935950000016456472170163412365_"  style="overflow:visible;fill:none;stroke:#A58D6C;stroke-miterlimit:10;"/>
		</g>
		<g>
			<defs>
				<rect id="SVGID_00000167361615518100309900000000737865164810150790_" x="592.7" y="2.1" width="146.8" height="139.7"/>
			</defs>
			<clipPath id="SVGID_00000129896796704267570910000007450820072883393431_">
				<use xlink:href="#SVGID_00000167361615518100309900000000737865164810150790_"  style="overflow:visible;"/>
			</clipPath>
			
				<path style="clip-path:url(#SVGID_00000129896796704267570910000007450820072883393431_);fill:#262A4A;stroke:#F4EFE9;stroke-width:1.5;stroke-miterlimit:10;" d="
				M600.6,36.4"/>
			
				<polyline style="clip-path:url(#SVGID_00000129896796704267570910000007450820072883393431_);fill:none;stroke:#A58D6C;stroke-miterlimit:10;" points="
				666.1,141.8 739.6,141.8 592.7,2.1 739.6,2.1 592.7,141.8 666.2,141.8 			"/>
			
				<line style="clip-path:url(#SVGID_00000129896796704267570910000007450820072883393431_);fill:none;stroke:#A58D6C;stroke-miterlimit:10;" x1="754.5" y1="17" x2="684.1" y2="84"/>
			
				<line style="clip-path:url(#SVGID_00000129896796704267570910000007450820072883393431_);fill:none;stroke:#A58D6C;stroke-miterlimit:10;" x1="770.1" y1="31.9" x2="715.2" y2="84.1"/>
			<g style="clip-path:url(#SVGID_00000129896796704267570910000007450820072883393431_);">
				<line class="st3" x1="577" y1="17" x2="647.5" y2="84"/>
				<line class="st3" x1="561.5" y1="31.9" x2="616.3" y2="84.1"/>
			</g>
			
				<line style="clip-path:url(#SVGID_00000129896796704267570910000007450820072883393431_);fill:none;stroke:#A58D6C;stroke-miterlimit:10;" x1="678.8" y1="84" x2="739.6" y2="84"/>
			
				<line style="clip-path:url(#SVGID_00000129896796704267570910000007450820072883393431_);fill:none;stroke:#A58D6C;stroke-miterlimit:10;" x1="592.7" y1="84" x2="653.4" y2="84"/>
			<g style="clip-path:url(#SVGID_00000129896796704267570910000007450820072883393431_);">
				<polyline class="st3" points="603.2,131.8 603.2,94.6 642.5,94.6 				"/>
				<polyline class="st3" points="613.8,121.8 613.8,105.1 631.3,105.1 				"/>
			</g>
			<g style="clip-path:url(#SVGID_00000129896796704267570910000007450820072883393431_);">
				<polyline class="st3" points="729,131.8 729,94.6 689.8,94.6 				"/>
				<polyline class="st3" points="718.5,121.8 718.5,105.1 700.9,105.1 				"/>
			</g>
			
				<polyline style="clip-path:url(#SVGID_00000129896796704267570910000007450820072883393431_);fill:none;stroke:#A58D6C;stroke-miterlimit:10;" points="
				603.8,161.1 666,101.9 728.2,161.1 			"/>
			
				<polyline style="clip-path:url(#SVGID_00000129896796704267570910000007450820072883393431_);fill:none;stroke:#A58D6C;stroke-miterlimit:10;" points="
				603.8,190.7 666,131.5 728.2,190.7 			"/>
			
				<path style="clip-path:url(#SVGID_00000129896796704267570910000007450820072883393431_);fill:none;stroke:#A58D6C;stroke-miterlimit:10;" d="
				M629.9,37.7c5.6-14.3,19.5-24.4,35.8-24.4c16.5,0,30.5,10.4,36,24.9"/>
			
				<use xlink:href="#SVGID_00000167361615518100309900000000737865164810150790_"  style="overflow:visible;fill:none;stroke:#A58D6C;stroke-miterlimit:10;"/>
		</g>
	</g>
	<g>
		<defs>
			<rect id="SVGID_00000013163853280159152000000007099505081385702315_" x="739.4" y="2.1" width="146.8" height="139.7"/>
		</defs>
		<clipPath id="SVGID_00000178888552035882134430000010294414163748873856_">
			<use xlink:href="#SVGID_00000013163853280159152000000007099505081385702315_"  style="overflow:visible;"/>
		</clipPath>
		
			<path style="clip-path:url(#SVGID_00000178888552035882134430000010294414163748873856_);fill:#262A4A;stroke:#F4EFE9;stroke-width:1.5;stroke-miterlimit:10;" d="
			M747.3,36.4"/>
		
			<polyline style="clip-path:url(#SVGID_00000178888552035882134430000010294414163748873856_);fill:none;stroke:#A58D6C;stroke-miterlimit:10;" points="
			812.8,141.8 886.3,141.8 739.4,2.1 886.3,2.1 739.4,141.8 812.9,141.8 		"/>
		
			<line style="clip-path:url(#SVGID_00000178888552035882134430000010294414163748873856_);fill:none;stroke:#A58D6C;stroke-miterlimit:10;" x1="901.2" y1="17" x2="830.8" y2="84"/>
		
			<line style="clip-path:url(#SVGID_00000178888552035882134430000010294414163748873856_);fill:none;stroke:#A58D6C;stroke-miterlimit:10;" x1="916.8" y1="31.9" x2="861.9" y2="84.1"/>
		<g style="clip-path:url(#SVGID_00000178888552035882134430000010294414163748873856_);">
			<line class="st3" x1="723.8" y1="17" x2="794.2" y2="84"/>
			<line class="st3" x1="708.2" y1="31.9" x2="763" y2="84.1"/>
		</g>
		
			<line style="clip-path:url(#SVGID_00000178888552035882134430000010294414163748873856_);fill:none;stroke:#A58D6C;stroke-miterlimit:10;" x1="825.6" y1="84" x2="886.3" y2="84"/>
		
			<line style="clip-path:url(#SVGID_00000178888552035882134430000010294414163748873856_);fill:none;stroke:#A58D6C;stroke-miterlimit:10;" x1="739.4" y1="84" x2="800.1" y2="84"/>
		<g style="clip-path:url(#SVGID_00000178888552035882134430000010294414163748873856_);">
			<polyline class="st3" points="749.9,131.8 749.9,94.6 789.2,94.6 			"/>
			<polyline class="st3" points="760.5,121.8 760.5,105.1 778.1,105.1 			"/>
		</g>
		<g style="clip-path:url(#SVGID_00000178888552035882134430000010294414163748873856_);">
			<polyline class="st3" points="875.7,131.8 875.7,94.6 836.5,94.6 			"/>
			<polyline class="st3" points="865.2,121.8 865.2,105.1 847.6,105.1 			"/>
		</g>
		
			<polyline style="clip-path:url(#SVGID_00000178888552035882134430000010294414163748873856_);fill:none;stroke:#A58D6C;stroke-miterlimit:10;" points="
			750.5,161.1 812.7,101.9 874.9,161.1 		"/>
		
			<polyline style="clip-path:url(#SVGID_00000178888552035882134430000010294414163748873856_);fill:none;stroke:#A58D6C;stroke-miterlimit:10;" points="
			750.5,190.7 812.7,131.5 874.9,190.7 		"/>
		
			<path style="clip-path:url(#SVGID_00000178888552035882134430000010294414163748873856_);fill:none;stroke:#A58D6C;stroke-miterlimit:10;" d="
			M776.6,37.7c5.6-14.3,19.5-24.4,35.8-24.4c16.5,0,30.5,10.4,36,24.9"/>
		
			<use xlink:href="#SVGID_00000013163853280159152000000007099505081385702315_"  style="overflow:visible;fill:none;stroke:#A58D6C;stroke-miterlimit:10;"/>
	</g>
	<g>
		<defs>
			<rect id="SVGID_00000000903281859141526710000015074781187582009216_" x="886.3" y="2.1" width="146.8" height="139.7"/>
		</defs>
		<clipPath id="SVGID_00000090290917382123600450000012425502673128367253_">
			<use xlink:href="#SVGID_00000000903281859141526710000015074781187582009216_"  style="overflow:visible;"/>
		</clipPath>
		
			<path style="clip-path:url(#SVGID_00000090290917382123600450000012425502673128367253_);fill:#262A4A;stroke:#F4EFE9;stroke-width:1.5;stroke-miterlimit:10;" d="
			M894.1,36.4"/>
		
			<polyline style="clip-path:url(#SVGID_00000090290917382123600450000012425502673128367253_);fill:none;stroke:#A58D6C;stroke-miterlimit:10;" points="
			959.6,141.8 1033.1,141.8 886.3,2.1 1033.1,2.1 886.3,141.8 959.7,141.8 		"/>
		
			<line style="clip-path:url(#SVGID_00000090290917382123600450000012425502673128367253_);fill:none;stroke:#A58D6C;stroke-miterlimit:10;" x1="1048" y1="17" x2="977.6" y2="84"/>
		
			<line style="clip-path:url(#SVGID_00000090290917382123600450000012425502673128367253_);fill:none;stroke:#A58D6C;stroke-miterlimit:10;" x1="1063.6" y1="31.9" x2="1008.8" y2="84.1"/>
		<g style="clip-path:url(#SVGID_00000090290917382123600450000012425502673128367253_);">
			<line class="st3" x1="870.6" y1="17" x2="941" y2="84"/>
			<line class="st3" x1="855" y1="31.9" x2="909.8" y2="84.1"/>
		</g>
		
			<line style="clip-path:url(#SVGID_00000090290917382123600450000012425502673128367253_);fill:none;stroke:#A58D6C;stroke-miterlimit:10;" x1="972.4" y1="84" x2="1033.1" y2="84"/>
		
			<line style="clip-path:url(#SVGID_00000090290917382123600450000012425502673128367253_);fill:none;stroke:#A58D6C;stroke-miterlimit:10;" x1="886.2" y1="84" x2="946.9" y2="84"/>
		<g style="clip-path:url(#SVGID_00000090290917382123600450000012425502673128367253_);">
			<polyline class="st3" points="896.8,131.8 896.8,94.6 936,94.6 			"/>
			<polyline class="st3" points="907.3,121.8 907.3,105.1 924.9,105.1 			"/>
		</g>
		<g style="clip-path:url(#SVGID_00000090290917382123600450000012425502673128367253_);">
			<polyline class="st3" points="1022.6,131.8 1022.6,94.6 983.3,94.6 			"/>
			<polyline class="st3" points="1012,121.8 1012,105.1 994.5,105.1 			"/>
		</g>
		
			<polyline style="clip-path:url(#SVGID_00000090290917382123600450000012425502673128367253_);fill:none;stroke:#A58D6C;stroke-miterlimit:10;" points="
			897.3,161.1 959.5,101.9 1021.7,161.1 		"/>
		
			<polyline style="clip-path:url(#SVGID_00000090290917382123600450000012425502673128367253_);fill:none;stroke:#A58D6C;stroke-miterlimit:10;" points="
			897.3,190.7 959.5,131.5 1021.7,190.7 		"/>
		
			<path style="clip-path:url(#SVGID_00000090290917382123600450000012425502673128367253_);fill:none;stroke:#A58D6C;stroke-miterlimit:10;" d="
			M923.5,37.7c5.6-14.3,19.5-24.4,35.8-24.4c16.5,0,30.5,10.4,36,24.9"/>
		
			<use xlink:href="#SVGID_00000000903281859141526710000015074781187582009216_"  style="overflow:visible;fill:none;stroke:#A58D6C;stroke-miterlimit:10;"/>
	</g>
	<g>
		<defs>
			<rect id="SVGID_00000152972659791197401610000006624574434921529008_" x="1033.1" y="2.1" width="146.8" height="139.7"/>
		</defs>
		<clipPath id="SVGID_00000000940374387827468450000006472252886373826218_">
			<use xlink:href="#SVGID_00000152972659791197401610000006624574434921529008_"  style="overflow:visible;"/>
		</clipPath>
		
			<path style="clip-path:url(#SVGID_00000000940374387827468450000006472252886373826218_);fill:#262A4A;stroke:#F4EFE9;stroke-width:1.5;stroke-miterlimit:10;" d="
			M1041,36.4"/>
		
			<polyline style="clip-path:url(#SVGID_00000000940374387827468450000006472252886373826218_);fill:none;stroke:#A58D6C;stroke-miterlimit:10;" points="
			1106.5,141.8 1179.9,141.8 1033.1,2.1 1179.9,2.1 1033.1,141.8 1106.5,141.8 		"/>
		
			<line style="clip-path:url(#SVGID_00000000940374387827468450000006472252886373826218_);fill:none;stroke:#A58D6C;stroke-miterlimit:10;" x1="1194.8" y1="17" x2="1124.4" y2="84"/>
		
			<line style="clip-path:url(#SVGID_00000000940374387827468450000006472252886373826218_);fill:none;stroke:#A58D6C;stroke-miterlimit:10;" x1="1210.4" y1="31.9" x2="1155.6" y2="84.1"/>
		<g style="clip-path:url(#SVGID_00000000940374387827468450000006472252886373826218_);">
			<line class="st3" x1="1017.4" y1="17" x2="1087.8" y2="84"/>
			<line class="st3" x1="1001.8" y1="31.9" x2="1056.7" y2="84.1"/>
		</g>
		
			<line style="clip-path:url(#SVGID_00000000940374387827468450000006472252886373826218_);fill:none;stroke:#A58D6C;stroke-miterlimit:10;" x1="1119.2" y1="84" x2="1179.9" y2="84"/>
		
			<line style="clip-path:url(#SVGID_00000000940374387827468450000006472252886373826218_);fill:none;stroke:#A58D6C;stroke-miterlimit:10;" x1="1033" y1="84" x2="1093.7" y2="84"/>
		<g style="clip-path:url(#SVGID_00000000940374387827468450000006472252886373826218_);">
			<polyline class="st3" points="1043.6,131.8 1043.6,94.6 1082.9,94.6 			"/>
			<polyline class="st3" points="1054.1,121.8 1054.1,105.1 1071.7,105.1 			"/>
		</g>
		<g style="clip-path:url(#SVGID_00000000940374387827468450000006472252886373826218_);">
			<polyline class="st3" points="1169.4,131.8 1169.4,94.6 1130.1,94.6 			"/>
			<polyline class="st3" points="1158.9,121.8 1158.9,105.1 1141.3,105.1 			"/>
		</g>
		
			<polyline style="clip-path:url(#SVGID_00000000940374387827468450000006472252886373826218_);fill:none;stroke:#A58D6C;stroke-miterlimit:10;" points="
			1044.1,161.1 1106.3,101.9 1168.5,161.1 		"/>
		
			<polyline style="clip-path:url(#SVGID_00000000940374387827468450000006472252886373826218_);fill:none;stroke:#A58D6C;stroke-miterlimit:10;" points="
			1044.1,190.7 1106.3,131.5 1168.5,190.7 		"/>
		
			<path style="clip-path:url(#SVGID_00000000940374387827468450000006472252886373826218_);fill:none;stroke:#A58D6C;stroke-miterlimit:10;" d="
			M1070.3,37.7c5.6-14.3,19.5-24.4,35.8-24.4c16.5,0,30.5,10.4,36,24.9"/>
		
			<use xlink:href="#SVGID_00000152972659791197401610000006624574434921529008_"  style="overflow:visible;fill:none;stroke:#A58D6C;stroke-miterlimit:10;"/>
	</g>
	<g>
		<defs>
			<rect id="SVGID_00000139262419021644439210000001980787763563613840_" x="1179.9" y="2.1" width="146.8" height="139.7"/>
		</defs>
		<clipPath id="SVGID_00000139977996453073709220000001272583123052228792_">
			<use xlink:href="#SVGID_00000139262419021644439210000001980787763563613840_"  style="overflow:visible;"/>
		</clipPath>
		
			<path style="clip-path:url(#SVGID_00000139977996453073709220000001272583123052228792_);fill:#262A4A;stroke:#F4EFE9;stroke-width:1.5;stroke-miterlimit:10;" d="
			M1187.8,36.4"/>
		
			<polyline style="clip-path:url(#SVGID_00000139977996453073709220000001272583123052228792_);fill:none;stroke:#A58D6C;stroke-miterlimit:10;" points="
			1253.3,141.8 1326.7,141.8 1179.9,2.1 1326.7,2.1 1179.9,141.8 1253.4,141.8 		"/>
		
			<line style="clip-path:url(#SVGID_00000139977996453073709220000001272583123052228792_);fill:none;stroke:#A58D6C;stroke-miterlimit:10;" x1="1341.7" y1="17" x2="1271.2" y2="84"/>
		
			<line style="clip-path:url(#SVGID_00000139977996453073709220000001272583123052228792_);fill:none;stroke:#A58D6C;stroke-miterlimit:10;" x1="1357.2" y1="31.9" x2="1302.4" y2="84.1"/>
		<g style="clip-path:url(#SVGID_00000139977996453073709220000001272583123052228792_);">
			<line class="st3" x1="1164.2" y1="17" x2="1234.7" y2="84"/>
			<line class="st3" x1="1148.6" y1="31.9" x2="1203.5" y2="84.1"/>
		</g>
		
			<line style="clip-path:url(#SVGID_00000139977996453073709220000001272583123052228792_);fill:none;stroke:#A58D6C;stroke-miterlimit:10;" x1="1266" y1="84" x2="1326.7" y2="84"/>
		
			<line style="clip-path:url(#SVGID_00000139977996453073709220000001272583123052228792_);fill:none;stroke:#A58D6C;stroke-miterlimit:10;" x1="1179.8" y1="84" x2="1240.5" y2="84"/>
		<g style="clip-path:url(#SVGID_00000139977996453073709220000001272583123052228792_);">
			<polyline class="st3" points="1190.4,131.8 1190.4,94.6 1229.7,94.6 			"/>
			<polyline class="st3" points="1201,121.8 1201,105.1 1218.5,105.1 			"/>
		</g>
		<g style="clip-path:url(#SVGID_00000139977996453073709220000001272583123052228792_);">
			<polyline class="st3" points="1316.2,131.8 1316.2,94.6 1276.9,94.6 			"/>
			<polyline class="st3" points="1305.7,121.8 1305.7,105.1 1288.1,105.1 			"/>
		</g>
		
			<polyline style="clip-path:url(#SVGID_00000139977996453073709220000001272583123052228792_);fill:none;stroke:#A58D6C;stroke-miterlimit:10;" points="
			1191,161.1 1253.2,101.9 1315.4,161.1 		"/>
		
			<polyline style="clip-path:url(#SVGID_00000139977996453073709220000001272583123052228792_);fill:none;stroke:#A58D6C;stroke-miterlimit:10;" points="
			1191,190.7 1253.2,131.5 1315.4,190.7 		"/>
		
			<path style="clip-path:url(#SVGID_00000139977996453073709220000001272583123052228792_);fill:none;stroke:#A58D6C;stroke-miterlimit:10;" d="
			M1217.1,37.7c5.6-14.3,19.5-24.4,35.8-24.4c16.5,0,30.5,10.4,36,24.9"/>
		
			<use xlink:href="#SVGID_00000139262419021644439210000001980787763563613840_"  style="overflow:visible;fill:none;stroke:#A58D6C;stroke-miterlimit:10;"/>
	</g>
	<g>
		<defs>
			<rect id="SVGID_00000029755378901422162440000006560360558822116029_" x="1326.7" y="2.1" width="146.8" height="139.7"/>
		</defs>
		<clipPath id="SVGID_00000177473412583716825590000015951736226223567537_">
			<use xlink:href="#SVGID_00000029755378901422162440000006560360558822116029_"  style="overflow:visible;"/>
		</clipPath>
		
			<path style="clip-path:url(#SVGID_00000177473412583716825590000015951736226223567537_);fill:#262A4A;stroke:#F4EFE9;stroke-width:1.5;stroke-miterlimit:10;" d="
			M1334.6,36.4"/>
		
			<polyline style="clip-path:url(#SVGID_00000177473412583716825590000015951736226223567537_);fill:none;stroke:#A58D6C;stroke-miterlimit:10;" points="
			1400.1,141.8 1473.6,141.8 1326.7,2.1 1473.6,2.1 1326.7,141.8 1400.2,141.8 		"/>
		
			<line style="clip-path:url(#SVGID_00000177473412583716825590000015951736226223567537_);fill:none;stroke:#A58D6C;stroke-miterlimit:10;" x1="1488.5" y1="17" x2="1418.1" y2="84"/>
		
			<line style="clip-path:url(#SVGID_00000177473412583716825590000015951736226223567537_);fill:none;stroke:#A58D6C;stroke-miterlimit:10;" x1="1504.1" y1="31.9" x2="1449.2" y2="84.1"/>
		<g style="clip-path:url(#SVGID_00000177473412583716825590000015951736226223567537_);">
			<line class="st3" x1="1311" y1="17" x2="1381.5" y2="84"/>
			<line class="st3" x1="1295.5" y1="31.9" x2="1350.3" y2="84.1"/>
		</g>
		
			<line style="clip-path:url(#SVGID_00000177473412583716825590000015951736226223567537_);fill:none;stroke:#A58D6C;stroke-miterlimit:10;" x1="1412.8" y1="84" x2="1473.6" y2="84"/>
		
			<line style="clip-path:url(#SVGID_00000177473412583716825590000015951736226223567537_);fill:none;stroke:#A58D6C;stroke-miterlimit:10;" x1="1326.7" y1="84" x2="1387.4" y2="84"/>
		<g style="clip-path:url(#SVGID_00000177473412583716825590000015951736226223567537_);">
			<polyline class="st3" points="1337.2,131.8 1337.2,94.6 1376.5,94.6 			"/>
			<polyline class="st3" points="1347.8,121.8 1347.8,105.1 1365.3,105.1 			"/>
		</g>
		<g style="clip-path:url(#SVGID_00000177473412583716825590000015951736226223567537_);">
			<polyline class="st3" points="1463,131.8 1463,94.6 1423.8,94.6 			"/>
			<polyline class="st3" points="1452.5,121.8 1452.5,105.1 1434.9,105.1 			"/>
		</g>
		
			<polyline style="clip-path:url(#SVGID_00000177473412583716825590000015951736226223567537_);fill:none;stroke:#A58D6C;stroke-miterlimit:10;" points="
			1337.8,161.1 1400,101.9 1462.2,161.1 		"/>
		
			<polyline style="clip-path:url(#SVGID_00000177473412583716825590000015951736226223567537_);fill:none;stroke:#A58D6C;stroke-miterlimit:10;" points="
			1337.8,190.7 1400,131.5 1462.2,190.7 		"/>
		
			<path style="clip-path:url(#SVGID_00000177473412583716825590000015951736226223567537_);fill:none;stroke:#A58D6C;stroke-miterlimit:10;" d="
			M1363.9,37.7c5.6-14.3,19.5-24.4,35.8-24.4c16.5,0,30.5,10.4,36,24.9"/>
		
			<use xlink:href="#SVGID_00000029755378901422162440000006560360558822116029_"  style="overflow:visible;fill:none;stroke:#A58D6C;stroke-miterlimit:10;"/>
	</g>
	<g>
		<defs>
			<rect id="SVGID_00000007412660934076720550000001531950819610483081_" x="1473.9" y="2.1" width="146.8" height="139.7"/>
		</defs>
		<clipPath id="SVGID_00000151530084727673162780000006627749091356277651_">
			<use xlink:href="#SVGID_00000007412660934076720550000001531950819610483081_"  style="overflow:visible;"/>
		</clipPath>
		
			<path style="clip-path:url(#SVGID_00000151530084727673162780000006627749091356277651_);fill:#262A4A;stroke:#F4EFE9;stroke-width:1.5;stroke-miterlimit:10;" d="
			M1481.8,36.4"/>
		
			<polyline style="clip-path:url(#SVGID_00000151530084727673162780000006627749091356277651_);fill:none;stroke:#A58D6C;stroke-miterlimit:10;" points="
			1547.3,141.8 1620.7,141.8 1473.9,2.1 1620.7,2.1 1473.9,141.8 1547.4,141.8 		"/>
		
			<line style="clip-path:url(#SVGID_00000151530084727673162780000006627749091356277651_);fill:none;stroke:#A58D6C;stroke-miterlimit:10;" x1="1635.7" y1="17" x2="1565.2" y2="84"/>
		
			<line style="clip-path:url(#SVGID_00000151530084727673162780000006627749091356277651_);fill:none;stroke:#A58D6C;stroke-miterlimit:10;" x1="1651.2" y1="31.9" x2="1596.4" y2="84.1"/>
		<g style="clip-path:url(#SVGID_00000151530084727673162780000006627749091356277651_);">
			<line class="st3" x1="1458.2" y1="17" x2="1528.7" y2="84"/>
			<line class="st3" x1="1442.6" y1="31.9" x2="1497.5" y2="84.1"/>
		</g>
		
			<line style="clip-path:url(#SVGID_00000151530084727673162780000006627749091356277651_);fill:none;stroke:#A58D6C;stroke-miterlimit:10;" x1="1560" y1="84" x2="1620.7" y2="84"/>
		
			<line style="clip-path:url(#SVGID_00000151530084727673162780000006627749091356277651_);fill:none;stroke:#A58D6C;stroke-miterlimit:10;" x1="1473.8" y1="84" x2="1534.5" y2="84"/>
		<g style="clip-path:url(#SVGID_00000151530084727673162780000006627749091356277651_);">
			<polyline class="st3" points="1484.4,131.8 1484.4,94.6 1523.7,94.6 			"/>
			<polyline class="st3" points="1495,121.8 1495,105.1 1512.5,105.1 			"/>
		</g>
		<g style="clip-path:url(#SVGID_00000151530084727673162780000006627749091356277651_);">
			<polyline class="st3" points="1610.2,131.8 1610.2,94.6 1570.9,94.6 			"/>
			<polyline class="st3" points="1599.7,121.8 1599.7,105.1 1582.1,105.1 			"/>
		</g>
		
			<polyline style="clip-path:url(#SVGID_00000151530084727673162780000006627749091356277651_);fill:none;stroke:#A58D6C;stroke-miterlimit:10;" points="
			1485,161.1 1547.2,101.9 1609.4,161.1 		"/>
		
			<polyline style="clip-path:url(#SVGID_00000151530084727673162780000006627749091356277651_);fill:none;stroke:#A58D6C;stroke-miterlimit:10;" points="
			1485,190.7 1547.2,131.5 1609.4,190.7 		"/>
		
			<path style="clip-path:url(#SVGID_00000151530084727673162780000006627749091356277651_);fill:none;stroke:#A58D6C;stroke-miterlimit:10;" d="
			M1511.1,37.7c5.6-14.3,19.5-24.4,35.8-24.4c16.5,0,30.5,10.4,36,24.9"/>
		
			<use xlink:href="#SVGID_00000007412660934076720550000001531950819610483081_"  style="overflow:visible;fill:none;stroke:#A58D6C;stroke-miterlimit:10;"/>
	</g>
	<g>
		<defs>
			<rect id="SVGID_00000053506717957562884630000003010044789091785148_" x="1620.7" y="2.1" width="146.8" height="139.7"/>
		</defs>
		<clipPath id="SVGID_00000166635675795917929110000008109978811678547111_">
			<use xlink:href="#SVGID_00000053506717957562884630000003010044789091785148_"  style="overflow:visible;"/>
		</clipPath>
		
			<path style="clip-path:url(#SVGID_00000166635675795917929110000008109978811678547111_);fill:#262A4A;stroke:#F4EFE9;stroke-width:1.5;stroke-miterlimit:10;" d="
			M1628.6,36.4"/>
		
			<polyline style="clip-path:url(#SVGID_00000166635675795917929110000008109978811678547111_);fill:none;stroke:#A58D6C;stroke-miterlimit:10;" points="
			1694.1,141.8 1767.6,141.8 1620.7,2.1 1767.6,2.1 1620.7,141.8 1694.2,141.8 		"/>
		
			<line style="clip-path:url(#SVGID_00000166635675795917929110000008109978811678547111_);fill:none;stroke:#A58D6C;stroke-miterlimit:10;" x1="1782.5" y1="17" x2="1712.1" y2="84"/>
		
			<line style="clip-path:url(#SVGID_00000166635675795917929110000008109978811678547111_);fill:none;stroke:#A58D6C;stroke-miterlimit:10;" x1="1798.1" y1="31.9" x2="1743.2" y2="84.1"/>
		<g style="clip-path:url(#SVGID_00000166635675795917929110000008109978811678547111_);">
			<line class="st3" x1="1605" y1="17" x2="1675.5" y2="84"/>
			<line class="st3" x1="1589.5" y1="31.9" x2="1644.3" y2="84.1"/>
		</g>
		
			<line style="clip-path:url(#SVGID_00000166635675795917929110000008109978811678547111_);fill:none;stroke:#A58D6C;stroke-miterlimit:10;" x1="1706.8" y1="84" x2="1767.6" y2="84"/>
		
			<line style="clip-path:url(#SVGID_00000166635675795917929110000008109978811678547111_);fill:none;stroke:#A58D6C;stroke-miterlimit:10;" x1="1620.7" y1="84" x2="1681.4" y2="84"/>
		<g style="clip-path:url(#SVGID_00000166635675795917929110000008109978811678547111_);">
			<polyline class="st3" points="1631.2,131.8 1631.2,94.6 1670.5,94.6 			"/>
			<polyline class="st3" points="1641.8,121.8 1641.8,105.1 1659.3,105.1 			"/>
		</g>
		<g style="clip-path:url(#SVGID_00000166635675795917929110000008109978811678547111_);">
			<polyline class="st3" points="1757,131.8 1757,94.6 1717.8,94.6 			"/>
			<polyline class="st3" points="1746.5,121.8 1746.5,105.1 1728.9,105.1 			"/>
		</g>
		
			<polyline style="clip-path:url(#SVGID_00000166635675795917929110000008109978811678547111_);fill:none;stroke:#A58D6C;stroke-miterlimit:10;" points="
			1631.8,161.1 1694,101.9 1756.2,161.1 		"/>
		
			<polyline style="clip-path:url(#SVGID_00000166635675795917929110000008109978811678547111_);fill:none;stroke:#A58D6C;stroke-miterlimit:10;" points="
			1631.8,190.7 1694,131.5 1756.2,190.7 		"/>
		
			<path style="clip-path:url(#SVGID_00000166635675795917929110000008109978811678547111_);fill:none;stroke:#A58D6C;stroke-miterlimit:10;" d="
			M1657.9,37.7c5.6-14.3,19.5-24.4,35.8-24.4c16.5,0,30.5,10.4,36,24.9"/>
		
			<use xlink:href="#SVGID_00000053506717957562884630000003010044789091785148_"  style="overflow:visible;fill:none;stroke:#A58D6C;stroke-miterlimit:10;"/>
	</g>
	<g>
		<defs>
			<rect id="SVGID_00000107588781550255213900000011850312278092795317_" x="1767.7" y="2.1" width="146.8" height="139.7"/>
		</defs>
		<clipPath id="SVGID_00000117645245872150745420000004227450381556003749_">
			<use xlink:href="#SVGID_00000107588781550255213900000011850312278092795317_"  style="overflow:visible;"/>
		</clipPath>
		
			<path style="clip-path:url(#SVGID_00000117645245872150745420000004227450381556003749_);fill:#262A4A;stroke:#F4EFE9;stroke-width:1.5;stroke-miterlimit:10;" d="
			M1775.6,36.4"/>
		
			<polyline style="clip-path:url(#SVGID_00000117645245872150745420000004227450381556003749_);fill:none;stroke:#A58D6C;stroke-miterlimit:10;" points="
			1841.1,141.8 1914.6,141.8 1767.7,2.1 1914.6,2.1 1767.7,141.8 1841.2,141.8 		"/>
		
			<line style="clip-path:url(#SVGID_00000117645245872150745420000004227450381556003749_);fill:none;stroke:#A58D6C;stroke-miterlimit:10;" x1="1929.5" y1="17" x2="1859.1" y2="84"/>
		
			<line style="clip-path:url(#SVGID_00000117645245872150745420000004227450381556003749_);fill:none;stroke:#A58D6C;stroke-miterlimit:10;" x1="1945.1" y1="31.9" x2="1890.2" y2="84.1"/>
		<g style="clip-path:url(#SVGID_00000117645245872150745420000004227450381556003749_);">
			<line class="st3" x1="1752" y1="17" x2="1822.5" y2="84"/>
			<line class="st3" x1="1736.5" y1="31.9" x2="1791.3" y2="84.1"/>
		</g>
		
			<line style="clip-path:url(#SVGID_00000117645245872150745420000004227450381556003749_);fill:none;stroke:#A58D6C;stroke-miterlimit:10;" x1="1853.8" y1="84" x2="1914.6" y2="84"/>
		
			<line style="clip-path:url(#SVGID_00000117645245872150745420000004227450381556003749_);fill:none;stroke:#A58D6C;stroke-miterlimit:10;" x1="1767.7" y1="84" x2="1828.4" y2="84"/>
		<g style="clip-path:url(#SVGID_00000117645245872150745420000004227450381556003749_);">
			<polyline class="st3" points="1778.2,131.8 1778.2,94.6 1817.5,94.6 			"/>
			<polyline class="st3" points="1788.8,121.8 1788.8,105.1 1806.3,105.1 			"/>
		</g>
		<g style="clip-path:url(#SVGID_00000117645245872150745420000004227450381556003749_);">
			<polyline class="st3" points="1904,131.8 1904,94.6 1864.8,94.6 			"/>
			<polyline class="st3" points="1893.5,121.8 1893.5,105.1 1875.9,105.1 			"/>
		</g>
		
			<polyline style="clip-path:url(#SVGID_00000117645245872150745420000004227450381556003749_);fill:none;stroke:#A58D6C;stroke-miterlimit:10;" points="
			1778.8,161.1 1841,101.9 1903.2,161.1 		"/>
		
			<polyline style="clip-path:url(#SVGID_00000117645245872150745420000004227450381556003749_);fill:none;stroke:#A58D6C;stroke-miterlimit:10;" points="
			1778.8,190.7 1841,131.5 1903.2,190.7 		"/>
		
			<path style="clip-path:url(#SVGID_00000117645245872150745420000004227450381556003749_);fill:none;stroke:#A58D6C;stroke-miterlimit:10;" d="
			M1804.9,37.7c5.6-14.3,19.5-24.4,35.8-24.4c16.5,0,30.5,10.4,36,24.9"/>
		
			<use xlink:href="#SVGID_00000107588781550255213900000011850312278092795317_"  style="overflow:visible;fill:none;stroke:#A58D6C;stroke-miterlimit:10;"/>
	</g>
</g>
</svg>
