<?xml version="1.0" encoding="utf-8"?>
<!-- Generator: Adobe Illustrator 25.4.1, SVG Export Plug-In . SVG Version: 6.00 Build 0)  -->
<svg version="1.1" id="Capa_1" xmlns="http://www.w3.org/2000/svg" xmlns:xlink="http://www.w3.org/1999/xlink" x="0px" y="0px"
	 viewBox="0 0 1417.3 1417.3" style="enable-background:new 0 0 1417.3 1417.3;" xml:space="preserve">
<style type="text/css">
	.st0{fill:#FFFFFF;}
</style>
<g>
	<g>
		<g>
			<path class="st0" d="M1333.7,564.4h-208.4v-53.8c0-14-11.4-25.4-25.4-25.4H551.1c-14,0-25.4,11.4-25.4,25.4s11.4,25.4,25.4,25.4
				h523.4v194.8c0,171.1-91.4,330.2-238.9,416.7H347.9C200.3,1061,109,902,109,730.9V536h170.2c14,0,25.4-11.4,25.4-25.4
				c0-14-11.4-25.4-25.4-25.4H83.6c-14,0-25.4,11.4-25.4,25.4v220.2c0,96,25.8,190.2,74.7,272.4c32.9,55.4,75.7,104.3,125.7,144.4
				h-175c-14,0-25.4,11.4-25.4,25.4c0,92.5,75.2,167.7,167.7,167.7h792.8c92.5,0,167.7-75.2,167.7-167.7c0-14-11.4-25.4-25.4-25.4
				H925c46.1-36.9,85.9-81.3,117.7-131.3h71.7c135,0,244.8-109.8,244.8-244.8V589.8C1359.1,575.8,1347.8,564.4,1333.7,564.4z
				 M1132.8,1198.4c-11.6,52.3-58.4,91.5-114.1,91.5H225.9c-55.7,0-102.5-39.2-114.1-91.5h229.3h501.4H1132.8z M1125.4,730.9v-14
				h81.3v54.6c0,50.9-41.4,92.3-92.3,92.3h-5.8C1119.7,820.6,1125.4,775.9,1125.4,730.9z M1308.3,771.5c0,107-87,194-194,194h-43.2
				c8.1-16.6,15.4-33.5,21.7-50.8h21.6c78.9,0,143.1-64.2,143.1-143.1v-80c0-14-11.4-25.4-25.4-25.4h-106.7v-50.8h183V771.5z"/>
		</g>
	</g>
	<g>
		<g>
			<path class="st0" d="M616,180.3l-13.2-16.6c-19.4-24.4-19.4-58.4-0.1-82.8c8.7-11,6.9-27-4.1-35.7c-11-8.7-27-6.9-35.7,4.1
				c-34.2,43-34.1,103.1,0.1,146.1l13.2,16.6c25.4,31.8,25.4,76.3,0.1,108.2l-13.5,17.1c-8.7,11-6.9,27,4.1,35.7
				c4.7,3.7,10.2,5.5,15.8,5.5c7.5,0,14.9-3.3,19.9-9.6l13.5-17.1C656.3,301.3,656.2,230.8,616,180.3z"/>
		</g>
	</g>
	<g>
		<g>
			<path class="st0" d="M756.9,237.5l-13.2-16.6c-19.4-24.4-19.4-58.4-0.1-82.8c8.7-11,6.9-27-4.1-35.7c-11-8.7-27-6.9-35.7,4.1
				c-34.2,43-34.1,103.1,0.1,146.1l13.2,16.6c25.4,31.8,25.4,76.3,0.1,108.2l-13.5,17.1c-8.7,11-6.9,27,4.1,35.7
				c4.7,3.7,10.2,5.5,15.8,5.5c7.5,0,14.9-3.3,19.9-9.6L757,409C797.1,358.4,797.1,287.9,756.9,237.5z"/>
		</g>
	</g>
	<g>
		<g>
			<path class="st0" d="M475.2,237.5L462,220.9c-19.4-24.4-19.4-58.4-0.1-82.8c8.7-11,6.9-27-4.1-35.7c-11-8.7-27-6.9-35.7,4.1
				c-34.2,43-34.1,103.1,0.1,146.1l13.2,16.6c25.4,31.8,25.4,76.3,0.1,108.2L422,394.4c-8.7,11-6.9,27,4.1,35.7
				c4.7,3.7,10.2,5.5,15.8,5.5c7.5,0,14.9-3.3,19.9-9.6l13.6-17.1C515.4,358.4,515.4,287.9,475.2,237.5z"/>
		</g>
	</g>
	<g>
		<g>
			<path class="st0" d="M440,492.7c-4.7-4.7-11.3-7.4-18-7.4s-13.2,2.7-18,7.4c-4.7,4.8-7.4,11.3-7.4,18c0,6.7,2.7,13.2,7.4,18
				c4.7,4.7,11.3,7.4,18,7.4s13.2-2.7,18-7.4c4.7-4.8,7.4-11.3,7.4-18C447.5,503.9,444.8,497.4,440,492.7z"/>
		</g>
	</g>
	<g>
		<g>
			<path class="st0" d="M978,705.4c-14,0-25.4,11.4-25.4,25.4c0,94.3-38.3,187-105,254.3c-9.9,10-9.8,26.1,0.2,35.9
				c5,4.9,11.4,7.4,17.9,7.4c6.5,0,13.1-2.5,18-7.5c76.1-76.7,119.7-182.5,119.7-290.1C1003.4,716.8,992,705.4,978,705.4z"/>
		</g>
	</g>
	<g>
		<g>
			<path class="st0" d="M804.9,1054.1c-6.9-12.2-22.4-16.5-34.6-9.6l-0.6,0.3c-12.2,6.9-16.5,22.4-9.6,34.6
				c4.7,8.3,13.3,12.9,22.2,12.9c4.2,0,8.5-1.1,12.5-3.3l0.6-0.3C807.5,1081.9,811.8,1066.4,804.9,1054.1z"/>
		</g>
	</g>
</g>
</svg>
