<?xml version="1.0" encoding="utf-8"?>
<!-- Generator: Adobe Illustrator 23.1.1, SVG Export Plug-In . SVG Version: 6.00 Build 0)  -->
<svg version="1.2" baseProfile="tiny" id="Capa_1" xmlns="http://www.w3.org/2000/svg" xmlns:xlink="http://www.w3.org/1999/xlink"
	 x="0px" y="0px" viewBox="0 0 1417.3 1417.3" xml:space="preserve">
<g>
	<path fill="#FFFFFF" d="M245,177.5c-10.5,0-19,8.5-19,19v123.1h-44.6V189.4c0-10.5-8.5-19-19-19c-10.5,0-19,8.5-19,19v130.2H98.8
		V189.4c0-10.5-8.5-19-19-19s-19,8.5-19,19v246.4c0,23.6,13.1,47.9,31.9,58.9c5.6,3.3,15,23.7,15,35.1v142.8
		c0,117.3-1,232.1-13.6,348.1c-7.8,71.6-12,132.2-12,146.7c0,46.5,35.3,82.9,80.4,82.9s80.4-36.4,80.4-82.9c0-14.5-4.3-75-12-146.7
		c-12.5-116-13.6-230.8-13.6-348.1V530.9c0-13.2,10.4-32.3,21.8-40c18.5-12.5,25-36.6,25-55.1V196.5C264,186,255.4,177.5,245,177.5z
		 M162.4,1212.3c-24.1,0-42.4-19.3-42.4-45c0-11.6,4.1-70.9,11.8-142.6c12.8-117.8,13.8-233.8,13.8-352.2V549.1l33.4,0.5v123
		c0,118.3,1.1,234.3,13.8,352.1c7.8,71.7,11.8,130.9,11.8,142.6C204.7,1192.9,186.5,1212.3,162.4,1212.3z M226,435.8
		c0,10.2-3.6,20.4-8.4,23.6c-16.7,11.3-30.2,31.7-35.8,52.2L143,511c-4.8-18.7-15.7-40-31-49c-7.2-4.2-13.2-16.2-13.2-26.2v-78.2
		H226V435.8z"/>
	<path fill="#FFFFFF" d="M977,1017.5c-71.8,59.7-162.8,92.5-256.3,92.5c-221.3,0-401.3-180-401.3-401.3
		c0-93.5,32.9-184.5,92.5-256.3c6.7-8.1,5.6-20.1-2.5-26.8c-8.1-6.7-20.1-5.6-26.8,2.5c-65.3,78.6-101.3,178.3-101.3,280.6
		c0,242.2,197,439.3,439.3,439.3c102.4,0,202-36,280.6-101.3c8.1-6.7,9.2-18.7,2.5-26.8C997,1011.9,985,1010.8,977,1017.5z"/>
	<path fill="#FFFFFF" d="M720.6,269.5c-101.7,0-200.9,35.6-279.2,100.2c-8.1,6.7-9.2,18.7-2.6,26.8c6.7,8.1,18.6,9.3,26.8,2.6
		c71.6-59,162.1-91.5,255.1-91.5c221.3,0,401.3,180,401.3,401.3c0,93-32.5,183.6-91.6,255.2c-6.7,8.1-5.5,20.1,2.6,26.8
		c3.5,2.9,7.8,4.3,12.1,4.3c5.5,0,10.9-2.4,14.7-6.9c64.7-78.4,100.3-177.6,100.3-279.4C1159.9,466.5,962.8,269.5,720.6,269.5z"/>
	<path fill="#FFFFFF" d="M720.6,1063.8c195.8,0,355-159.3,355-355c0-195.7-159.3-355-355-355c-195.7,0-355,159.3-355,355
		C365.6,904.5,524.9,1063.8,720.6,1063.8z M720.6,391.8c174.8,0,317,142.2,317,317c0,174.8-142.2,317-317,317
		c-174.8,0-317-142.2-317-317C403.6,534,545.8,391.8,720.6,391.8z"/>
	<path fill="#FFFFFF" d="M1358,182.3c0-6.8-4.8-13.2-10.7-16.5c-6-3.4-13.3-3.3-19.1,0.3c-81.9,49.2-132.8,139.2-132.8,234.7v292.1
		c0,12.4,6.1,24.6,17.2,34.4c10,8.8,23.3,15,36.7,17.6v72.5c0,67.8-11.7,170.9-20.3,246.2c-5.5,48.1-9.8,86.1-9.8,102.8
		c0,81.6,52.5,87.9,68.6,87.9c33.9,0,70.2-23.1,70.2-88C1358,1165.4,1358,182.3,1358,182.3z M1233.3,692.8V400.7
		c0-70.5,32.1-137.4,85.6-181.8c0.2,139.3,0.4,335.8,0.6,488l-51.7,0.9c-0.7,0-1.4,0.1-2.1,0.1c-8.7,1.1-20.8-2.9-28.1-9.3
		C1234.1,695.5,1233.3,693.2,1233.3,692.8z M1287.8,1216.2c-7.6,0-30.6,0-30.6-49.9c0-14.5,4.4-53.4,9.6-98.5
		c8.7-76.2,20.5-180.5,20.5-250.5v-71.8l31.7-0.6c0.7,339.7,1,420.6,1,421.3C1320,1189.1,1314.4,1216.2,1287.8,1216.2z"/>
</g>
</svg>
