<?xml version="1.0" encoding="utf-8"?>
<!-- Generator: Adobe Illustrator 25.4.1, SVG Export Plug-In . SVG Version: 6.00 Build 0)  -->
<svg version="1.1" id="Layer_1" xmlns="http://www.w3.org/2000/svg" xmlns:xlink="http://www.w3.org/1999/xlink" x="0px" y="0px"
	 viewBox="0 0 841.9 595.3" style="enable-background:new 0 0 841.9 595.3;" xml:space="preserve">
<style type="text/css">
	.st0{fill:#1C3532;}
</style>
<path class="st0" d="M503.2,110c-20.3-23.8-50.4-38.9-84-38.9c-33.6,0-63.7,15.1-84,38.9H73.8v100v8.2v112.4v8.2v112.4v8.2v63.9
	h70.1h8.7h63.3h8.7h46.1h8.7h63.3h8.7h46.1l0.9,0.8l0.8-0.8h89.4h8.7h62.6h8.7h46.7h8.7h62.6h8.7h46.7l0.9,0.8l0.8-0.8h24.7v-61
	v-8.2V341.7v-8.2V221.1v-8.2V110H503.2z M762.1,116v94L591.7,372.2L484.7,270.4c27.2-20.1,44.9-52.4,44.9-88.8
	c0-24.6-8.1-47.3-21.7-65.6H762.1z M762.1,330.6L655,432.5l-59-56.2l166.1-158.1V330.6z M762.1,451.2l-43.7,41.6l-59-56.2
	l102.7-97.8V451.2z M419.8,329.2L310.9,432.8l-59-56.2l107.4-102.3c17.3,11.2,37.8,17.7,59.8,17.7c22.4,0,43.2-6.7,60.6-18.2
	l107.6,102.5l-59,56.2L419.8,329.2z M524,436.6l-59,56.2l-45.2-43l-45.5,43.3l-59-56.2l104.5-99.5L524,436.6z M79.8,341.7
	l100.1,95.3l-59,56.2l-41-39.1V341.7z M79.8,333.4V221.1l163.4,155.6l-59,56.2L79.8,333.4z M247.5,380.8l59,56.2l-59,56.2l-59-56.2
	L247.5,380.8z M421.8,210.5l-2.1-2l-61.1,58.2c-26.6-19-44-50-44-85.1c0-24.8,8.7-47.7,23.3-65.6h162.4
	c14.5,17.9,23.3,40.8,23.3,65.6c0,34.8-17.1,65.6-43.3,84.6L421.8,210.5z M475.3,269.6c-16.2,10.4-35.5,16.4-56.1,16.4
	c-20.3,0-39.3-5.9-55.4-16l56-53.3L475.3,269.6z M591.7,380.5l59,56.2l-59,56.2l-59-56.2L591.7,380.5z M419.2,77.1
	c29.9,0,56.9,12.7,76,32.9h-152C362.2,89.8,389.2,77.1,419.2,77.1z M79.8,116h250.6c-13.6,18.4-21.7,41.1-21.7,65.6
	c0,36.7,18,69.2,45.6,89.3L247.5,372.5L79.8,212.8V116z M762.1,517.4h-18l-0.2-0.2h-8.7l0.2,0.2h-34.2l0.2-0.2h-8.7l-0.2,0.2h-75.2
	l-0.2-0.2h-8.7l0.2,0.2h-34.2l0.2-0.2h-8.7l-0.2,0.2h-75.2l-0.2-0.2h-8.7l0.2,0.2h-82.4l-0.2-0.2h-8.7l0.2,0.2h-33.6l0.2-0.2H349
	l-0.2,0.2H273l-0.2-0.2h-8.7l0.2,0.2h-33.6l0.2-0.2h-8.7l-0.2,0.2h-75.8l-0.2-0.2h-8.7l0.2,0.2H79.8v-55l36.7,34.9h0.1h8.6h0.1
	l59-56.1l59,56.1h0.1h8.6h0.1l59-56.1l59,56.1h0.1h8.6h0.1l41.1-39.2l40.9,38.9l-0.3,0.2h0.5h8.1h0.5l-0.3-0.2l59-56.2l59,56.2
	l-0.3,0.2h0.5h8.1h0.5L596,497l59-56.2l59,56.2l-0.3,0.2h0.5h8.1h0.5l-0.3-0.2l39.4-37.5V517.4z"/>
</svg>
